M48
;GenerationSoftware,Autodesk,EAGLE,9.6.2*%
;CreationDate,2023-06-08T17:15:28Z*%
FMAT,2
ICI,OFF
METRIC,TZ,000.000
T14C0.650
T13C0.730
T12C0.743
T11C0.762
T10C0.900
T9C0.990
T8C1.000
T7C1.016
T6C1.143
T5C1.270
T4C1.750
T3C2.000
T2C3.200
%
G90
M71
T2
X34290Y90170
X62230Y90170
X77470Y39370
T3
X53784Y79300
T4
X19275Y80963
X15875Y67493
X19275Y67493
X15875Y80963
T5
X1270Y98742
X-1587Y19368
X142240Y18415
X143193Y98742
T6
X110490Y45720
X129540Y39370
X132080Y39370
X134620Y45720
X132080Y45720
X129540Y45720
X134620Y39370
X115570Y45720
X91440Y39370
X93980Y39370
X96520Y39370
X96520Y45720
X93980Y45720
X110490Y39370
X113030Y39370
X115570Y39370
X113030Y45720
X91440Y45720
T7
X29210Y77470
X77470Y80010
X77470Y82550
X77470Y85090
X77470Y87630
X29210Y57150
X29210Y59690
X29210Y62230
X29210Y64770
X29210Y67310
X29210Y69850
X29210Y74930
X29210Y80010
X29210Y82550
X29210Y87630
X124460Y78867
X124460Y76073
X29210Y85090
X120650Y78867
X8255Y39243
X8255Y42037
X8255Y61277
X8255Y63817
X8255Y66358
X8255Y53340
X8255Y50800
X8255Y48260
X77470Y74930
X101600Y78867
X101600Y76073
X86360Y78867
X120650Y76073
X86360Y76073
X105410Y78867
X105410Y76073
X77470Y60706
X139700Y76073
X139700Y78867
X77470Y48006
X77470Y50546
X77470Y53086
X77470Y55626
X77470Y58166
X77470Y63246
X77470Y65786
X77470Y69850
X77470Y72390
X77470Y77470
T8
X5715Y84773
X5715Y74613
T9
X8648Y27967
X8648Y35270
X8648Y30770
X2148Y35270
X2148Y30770
X8648Y23467
X2148Y27967
X2148Y23467
T10
X116840Y72390
X135890Y69850
X109220Y72390
X15915Y27622
X116840Y69850
X109220Y69850
X90170Y69850
X97790Y69850
X135890Y72390
X128270Y72390
X90170Y72390
X97790Y72390
X128270Y69850
X49212Y37465
X20915Y55562
X15915Y41593
X41593Y52705
X49212Y52705
X52070Y52705
X59690Y52705
X41593Y45085
X49212Y45085
X52070Y45085
X59690Y45085
X41593Y37465
X20915Y27622
X52070Y37465
X59690Y37465
X41593Y56515
X49212Y56515
X41593Y48895
X49212Y48895
X41593Y41275
X49212Y41275
X20915Y41593
X15915Y55562
T11
X4445Y39370
X4445Y42228
T12
X97790Y81280
X90170Y83820
X97790Y83820
X116840Y83820
X116840Y81280
X116840Y78740
X116840Y76200
X109220Y76200
X109220Y78740
X109220Y81280
X109220Y83820
X90170Y81280
X97790Y78740
X97790Y76200
X90170Y76200
X128270Y83820
X128270Y81280
X128270Y78740
X128270Y76200
X135890Y76200
X135890Y78740
X135890Y81280
X135890Y83820
X90170Y78740
T13
X98126Y88900
X89834Y88900
X108884Y88900
X117176Y88900
X127934Y88900
X136226Y88900
T14
X72390Y48260
X72390Y56197
X119062Y23177
X119697Y37465
X100012Y23812
X100647Y37465
X138430Y23177
X139065Y37465
X137160Y64770
X118110Y64770
X99060Y64770
M30