G04 EAGLE Gerber RS-274X export*
G75*
%MOMM*%
%FSLAX34Y34*%
%LPD*%
%INTop Copper*%
%IPPOS*%
%AMOC8*
5,1,8,0,0,1.08239X$1,22.5*%
G01*
%ADD10C,1.524000*%
%ADD11C,2.032000*%
%ADD12C,1.343400*%
%ADD13R,1.238000X1.238000*%
%ADD14C,1.238000*%
%ADD15C,1.879600*%
%ADD16C,1.498000*%
%ADD17R,1.498000X1.498000*%
%ADD18C,1.714500*%
%ADD19R,7.620000X7.620000*%
%ADD20P,2.841274X8X292.500000*%
%ADD21C,1.981200*%
%ADD22C,1.930400*%
%ADD23R,1.930400X1.930400*%
%ADD24C,1.778000*%
%ADD25C,1.300000*%
%ADD26C,0.762000*%


D10*
X90170Y663575D02*
X74930Y663575D01*
X74930Y638175D02*
X90170Y638175D01*
X90170Y612775D02*
X74930Y612775D01*
D11*
X82550Y420370D03*
X82550Y392430D03*
D12*
X1282700Y838200D03*
X1282700Y812800D03*
X1282700Y787400D03*
X1282700Y762000D03*
X1358900Y762000D03*
X1358900Y787400D03*
X1358900Y812800D03*
X1358900Y838200D03*
D11*
X1397000Y788670D03*
X1397000Y760730D03*
D10*
X782320Y480060D02*
X767080Y480060D01*
X767080Y505460D02*
X782320Y505460D01*
X782320Y530860D02*
X767080Y530860D01*
X767080Y556260D02*
X782320Y556260D01*
X782320Y581660D02*
X767080Y581660D01*
X767080Y607060D02*
X782320Y607060D01*
X782320Y632460D02*
X767080Y632460D01*
X767080Y657860D02*
X782320Y657860D01*
X782320Y698500D02*
X767080Y698500D01*
X767080Y723900D02*
X782320Y723900D01*
X782320Y749300D02*
X767080Y749300D01*
X767080Y774700D02*
X782320Y774700D01*
X782320Y800100D02*
X767080Y800100D01*
X767080Y825500D02*
X782320Y825500D01*
X782320Y850900D02*
X767080Y850900D01*
X767080Y876300D02*
X782320Y876300D01*
X299720Y571500D02*
X284480Y571500D01*
X284480Y596900D02*
X299720Y596900D01*
X299720Y622300D02*
X284480Y622300D01*
X284480Y647700D02*
X299720Y647700D01*
X299720Y673100D02*
X284480Y673100D01*
X284480Y698500D02*
X299720Y698500D01*
X299720Y749300D02*
X284480Y749300D01*
X284480Y774700D02*
X299720Y774700D01*
X299720Y800100D02*
X284480Y800100D01*
X284480Y825500D02*
X299720Y825500D01*
X299720Y850900D02*
X284480Y850900D01*
X284480Y876300D02*
X299720Y876300D01*
D11*
X1244600Y788670D03*
X1244600Y760730D03*
D13*
X1362260Y889000D03*
D14*
X1279340Y889000D03*
D15*
X415925Y527050D03*
X492125Y527050D03*
X520700Y527050D03*
X596900Y527050D03*
X415925Y450850D03*
X492125Y450850D03*
X520700Y450850D03*
X596900Y450850D03*
X415925Y374650D03*
X492125Y374650D03*
X520700Y374650D03*
X596900Y374650D03*
X415925Y565150D03*
X492125Y565150D03*
X415925Y488950D03*
X492125Y488950D03*
X415925Y412750D03*
X492125Y412750D03*
D16*
X21475Y234675D03*
D17*
X21475Y279675D03*
D16*
X86475Y234675D03*
X86475Y279675D03*
X21475Y307700D03*
D17*
X21475Y352700D03*
D16*
X86475Y307700D03*
X86475Y352700D03*
D18*
X1295400Y448628D02*
X1295400Y465773D01*
X1320800Y465773D02*
X1320800Y448628D01*
X1346200Y448628D02*
X1346200Y465773D01*
D19*
X1320800Y622300D03*
D18*
X1346200Y402273D02*
X1346200Y385128D01*
X1320800Y385128D02*
X1320800Y402273D01*
X1295400Y402273D02*
X1295400Y385128D01*
D19*
X1320800Y228600D03*
D18*
X1104900Y448628D02*
X1104900Y465773D01*
X1130300Y465773D02*
X1130300Y448628D01*
X1155700Y448628D02*
X1155700Y465773D01*
D19*
X1130300Y622300D03*
D18*
X1155700Y402273D02*
X1155700Y385128D01*
X1130300Y385128D02*
X1130300Y402273D01*
X1104900Y402273D02*
X1104900Y385128D01*
D19*
X1130300Y228600D03*
D18*
X914400Y448628D02*
X914400Y465773D01*
X939800Y465773D02*
X939800Y448628D01*
X965200Y448628D02*
X965200Y465773D01*
D19*
X939800Y622300D03*
D18*
X965200Y402273D02*
X965200Y385128D01*
X939800Y385128D02*
X939800Y402273D01*
X914400Y402273D02*
X914400Y385128D01*
D19*
X939800Y228600D03*
D15*
X1282700Y698500D03*
X1358900Y698500D03*
X1282700Y723900D03*
X1358900Y723900D03*
X1092200Y698500D03*
X1168400Y698500D03*
X1092200Y723900D03*
X1168400Y723900D03*
X901700Y698500D03*
X977900Y698500D03*
X901700Y723900D03*
X977900Y723900D03*
D20*
X192750Y809625D03*
X158750Y809625D03*
X192750Y674925D03*
X158750Y674925D03*
D21*
X57150Y847725D03*
X57150Y746125D03*
D22*
X159150Y555625D03*
D23*
X209150Y555625D03*
D22*
X159150Y415925D03*
D23*
X209150Y415925D03*
D22*
X159150Y276225D03*
D23*
X209150Y276225D03*
D10*
X90170Y533400D02*
X74930Y533400D01*
X74930Y508000D02*
X90170Y508000D01*
X90170Y482600D02*
X74930Y482600D01*
D12*
X1092200Y838200D03*
X1092200Y812800D03*
X1092200Y787400D03*
X1092200Y762000D03*
X1168400Y762000D03*
X1168400Y787400D03*
X1168400Y812800D03*
X1168400Y838200D03*
D11*
X1206500Y788670D03*
X1206500Y760730D03*
X1054100Y788670D03*
X1054100Y760730D03*
D13*
X1171760Y889000D03*
D14*
X1088840Y889000D03*
D12*
X901700Y838200D03*
X901700Y812800D03*
X901700Y787400D03*
X901700Y762000D03*
X977900Y762000D03*
X977900Y787400D03*
X977900Y812800D03*
X977900Y838200D03*
D11*
X1016000Y788670D03*
X1016000Y760730D03*
X863600Y788670D03*
X863600Y760730D03*
D13*
X981260Y889000D03*
D14*
X898340Y889000D03*
D24*
X44450Y393700D03*
D25*
X990600Y647700D03*
X1181100Y647700D03*
X1371600Y647700D03*
D26*
X965200Y647700D02*
X939800Y622300D01*
X965200Y647700D02*
X990600Y647700D01*
X1130300Y622300D02*
X1155700Y647700D01*
X1181100Y647700D01*
X1320800Y622300D02*
X1346200Y647700D01*
X1371600Y647700D01*
X1181100Y647700D02*
X990600Y647700D01*
X1181100Y647700D02*
X1371600Y647700D01*
D24*
X44450Y422275D03*
D25*
X1390650Y374650D03*
D26*
X1381125Y228600D02*
X1320800Y228600D01*
X1384300Y231775D02*
X1390650Y238125D01*
X1384300Y231775D02*
X1381125Y228600D01*
X1390650Y238125D02*
X1390650Y374650D01*
D25*
X1384300Y231775D03*
D26*
X939800Y234950D02*
X936625Y231775D01*
D25*
X1006475Y374650D03*
D26*
X946150Y234950D02*
X939800Y228600D01*
X946150Y234950D02*
X996950Y234950D01*
X1000125Y238125D01*
X1006475Y244475D01*
X1006475Y374650D01*
D25*
X1000125Y238125D03*
X1196975Y374650D03*
D26*
X1196975Y238125D02*
X1190625Y231775D01*
X1187450Y228600D01*
X1130300Y228600D01*
X1196975Y238125D02*
X1196975Y374650D01*
D25*
X1190625Y231775D03*
X723900Y561975D03*
X723900Y482600D03*
D26*
X723900Y561975D01*
M02*
