G04 EAGLE Gerber RS-274X export*
G75*
%MOMM*%
%FSLAX34Y34*%
%LPD*%
%INSoldermask Top*%
%IPPOS*%
%AMOC8*
5,1,8,0,0,1.08239X$1,22.5*%
G01*
%ADD10C,1.473200*%
%ADD11C,1.727200*%
%ADD12C,1.546600*%
%ADD13C,3.403200*%
%ADD14C,2.203200*%
%ADD15R,1.441200X1.441200*%
%ADD16C,1.441200*%
%ADD17C,2.082800*%
%ADD18C,1.701200*%
%ADD19R,1.701200X1.701200*%
%ADD20C,1.917700*%
%ADD21R,7.823200X7.823200*%
%ADD22P,3.061215X8X292.500000*%
%ADD23C,2.184400*%
%ADD24C,2.133600*%
%ADD25R,2.133600X2.133600*%
%ADD26C,1.981200*%
%ADD27C,1.503200*%

G36*
X1017011Y783791D02*
X1017011Y783791D01*
X1017060Y783805D01*
X1017150Y783821D01*
X1018106Y784137D01*
X1018151Y784161D01*
X1018235Y784197D01*
X1019096Y784718D01*
X1019134Y784751D01*
X1019209Y784804D01*
X1019933Y785504D01*
X1019962Y785545D01*
X1020023Y785614D01*
X1020573Y786457D01*
X1020593Y786503D01*
X1020637Y786584D01*
X1020985Y787528D01*
X1020994Y787578D01*
X1021019Y787666D01*
X1021149Y788664D01*
X1021147Y788707D01*
X1021148Y788833D01*
X1021009Y789844D01*
X1020993Y789892D01*
X1020974Y789982D01*
X1020612Y790937D01*
X1020586Y790980D01*
X1020548Y791064D01*
X1019983Y791914D01*
X1019948Y791951D01*
X1019891Y792023D01*
X1019152Y792727D01*
X1019109Y792755D01*
X1019038Y792813D01*
X1018160Y793334D01*
X1018113Y793352D01*
X1018031Y793393D01*
X1017059Y793706D01*
X1017009Y793713D01*
X1016920Y793734D01*
X1015902Y793823D01*
X1015852Y793818D01*
X1015761Y793819D01*
X1014797Y793688D01*
X1014749Y793672D01*
X1014660Y793653D01*
X1013749Y793311D01*
X1013706Y793285D01*
X1013623Y793246D01*
X1012811Y792709D01*
X1012775Y792674D01*
X1012702Y792618D01*
X1012030Y791914D01*
X1012003Y791872D01*
X1011944Y791801D01*
X1011446Y790966D01*
X1011428Y790918D01*
X1011388Y790836D01*
X1011088Y789911D01*
X1011081Y789860D01*
X1011059Y789771D01*
X1010973Y788802D01*
X1010977Y788755D01*
X1010974Y788680D01*
X1011076Y787704D01*
X1011090Y787656D01*
X1011106Y787566D01*
X1011422Y786637D01*
X1011447Y786593D01*
X1011483Y786508D01*
X1011997Y785673D01*
X1012031Y785636D01*
X1012085Y785561D01*
X1012773Y784862D01*
X1012814Y784832D01*
X1012883Y784772D01*
X1013710Y784243D01*
X1013756Y784224D01*
X1013837Y784180D01*
X1014760Y783848D01*
X1014810Y783840D01*
X1014899Y783815D01*
X1015873Y783697D01*
X1015923Y783700D01*
X1016009Y783696D01*
X1017011Y783791D01*
G37*
G36*
X1055111Y783791D02*
X1055111Y783791D01*
X1055160Y783805D01*
X1055250Y783821D01*
X1056206Y784137D01*
X1056251Y784161D01*
X1056335Y784197D01*
X1057196Y784718D01*
X1057234Y784751D01*
X1057309Y784804D01*
X1058033Y785504D01*
X1058062Y785545D01*
X1058123Y785614D01*
X1058673Y786457D01*
X1058693Y786503D01*
X1058737Y786584D01*
X1059085Y787528D01*
X1059094Y787578D01*
X1059119Y787666D01*
X1059249Y788664D01*
X1059247Y788707D01*
X1059248Y788833D01*
X1059109Y789844D01*
X1059093Y789892D01*
X1059074Y789982D01*
X1058712Y790937D01*
X1058686Y790980D01*
X1058648Y791064D01*
X1058083Y791914D01*
X1058048Y791951D01*
X1057991Y792023D01*
X1057252Y792727D01*
X1057209Y792755D01*
X1057138Y792813D01*
X1056260Y793334D01*
X1056213Y793352D01*
X1056131Y793393D01*
X1055159Y793706D01*
X1055109Y793713D01*
X1055020Y793734D01*
X1054002Y793823D01*
X1053952Y793818D01*
X1053861Y793819D01*
X1052897Y793688D01*
X1052849Y793672D01*
X1052760Y793653D01*
X1051849Y793311D01*
X1051806Y793285D01*
X1051723Y793246D01*
X1050911Y792709D01*
X1050875Y792674D01*
X1050802Y792618D01*
X1050130Y791914D01*
X1050103Y791872D01*
X1050044Y791801D01*
X1049546Y790966D01*
X1049528Y790918D01*
X1049488Y790836D01*
X1049188Y789911D01*
X1049181Y789860D01*
X1049159Y789771D01*
X1049073Y788802D01*
X1049077Y788755D01*
X1049074Y788680D01*
X1049176Y787704D01*
X1049190Y787656D01*
X1049206Y787566D01*
X1049522Y786637D01*
X1049547Y786593D01*
X1049583Y786508D01*
X1050097Y785673D01*
X1050131Y785636D01*
X1050185Y785561D01*
X1050873Y784862D01*
X1050914Y784832D01*
X1050983Y784772D01*
X1051810Y784243D01*
X1051856Y784224D01*
X1051937Y784180D01*
X1052860Y783848D01*
X1052910Y783840D01*
X1052999Y783815D01*
X1053973Y783697D01*
X1054023Y783700D01*
X1054109Y783696D01*
X1055111Y783791D01*
G37*
G36*
X864611Y783791D02*
X864611Y783791D01*
X864660Y783805D01*
X864750Y783821D01*
X865706Y784137D01*
X865751Y784161D01*
X865835Y784197D01*
X866696Y784718D01*
X866734Y784751D01*
X866809Y784804D01*
X867533Y785504D01*
X867562Y785545D01*
X867623Y785614D01*
X868173Y786457D01*
X868193Y786503D01*
X868237Y786584D01*
X868585Y787528D01*
X868594Y787578D01*
X868619Y787666D01*
X868749Y788664D01*
X868747Y788707D01*
X868748Y788833D01*
X868609Y789844D01*
X868593Y789892D01*
X868574Y789982D01*
X868212Y790937D01*
X868186Y790980D01*
X868148Y791064D01*
X867583Y791914D01*
X867548Y791951D01*
X867491Y792023D01*
X866752Y792727D01*
X866709Y792755D01*
X866638Y792813D01*
X865760Y793334D01*
X865713Y793352D01*
X865631Y793393D01*
X864659Y793706D01*
X864609Y793713D01*
X864520Y793734D01*
X863502Y793823D01*
X863452Y793818D01*
X863361Y793819D01*
X862397Y793688D01*
X862349Y793672D01*
X862260Y793653D01*
X861349Y793311D01*
X861306Y793285D01*
X861223Y793246D01*
X860411Y792709D01*
X860375Y792674D01*
X860302Y792618D01*
X859630Y791914D01*
X859603Y791872D01*
X859544Y791801D01*
X859046Y790966D01*
X859028Y790918D01*
X858988Y790836D01*
X858688Y789911D01*
X858681Y789860D01*
X858659Y789771D01*
X858573Y788802D01*
X858577Y788755D01*
X858574Y788680D01*
X858676Y787704D01*
X858690Y787656D01*
X858706Y787566D01*
X859022Y786637D01*
X859047Y786593D01*
X859083Y786508D01*
X859597Y785673D01*
X859631Y785636D01*
X859685Y785561D01*
X860373Y784862D01*
X860414Y784832D01*
X860483Y784772D01*
X861310Y784243D01*
X861356Y784224D01*
X861437Y784180D01*
X862360Y783848D01*
X862410Y783840D01*
X862499Y783815D01*
X863473Y783697D01*
X863523Y783700D01*
X863609Y783696D01*
X864611Y783791D01*
G37*
G36*
X1398011Y783791D02*
X1398011Y783791D01*
X1398060Y783805D01*
X1398150Y783821D01*
X1399106Y784137D01*
X1399151Y784161D01*
X1399235Y784197D01*
X1400096Y784718D01*
X1400134Y784751D01*
X1400209Y784804D01*
X1400933Y785504D01*
X1400962Y785545D01*
X1401023Y785614D01*
X1401573Y786457D01*
X1401593Y786503D01*
X1401637Y786584D01*
X1401985Y787528D01*
X1401994Y787578D01*
X1402019Y787666D01*
X1402149Y788664D01*
X1402147Y788707D01*
X1402148Y788833D01*
X1402009Y789844D01*
X1401993Y789892D01*
X1401974Y789982D01*
X1401612Y790937D01*
X1401586Y790980D01*
X1401548Y791064D01*
X1400983Y791914D01*
X1400948Y791951D01*
X1400891Y792023D01*
X1400152Y792727D01*
X1400109Y792755D01*
X1400038Y792813D01*
X1399160Y793334D01*
X1399113Y793352D01*
X1399031Y793393D01*
X1398059Y793706D01*
X1398009Y793713D01*
X1397920Y793734D01*
X1396902Y793823D01*
X1396852Y793818D01*
X1396761Y793819D01*
X1395797Y793688D01*
X1395749Y793672D01*
X1395660Y793653D01*
X1394749Y793311D01*
X1394706Y793285D01*
X1394623Y793246D01*
X1393811Y792709D01*
X1393775Y792674D01*
X1393702Y792618D01*
X1393030Y791914D01*
X1393003Y791872D01*
X1392944Y791801D01*
X1392446Y790966D01*
X1392428Y790918D01*
X1392388Y790836D01*
X1392088Y789911D01*
X1392081Y789860D01*
X1392059Y789771D01*
X1391973Y788802D01*
X1391977Y788755D01*
X1391974Y788680D01*
X1392076Y787704D01*
X1392090Y787656D01*
X1392106Y787566D01*
X1392422Y786637D01*
X1392447Y786593D01*
X1392483Y786508D01*
X1392997Y785673D01*
X1393031Y785636D01*
X1393085Y785561D01*
X1393773Y784862D01*
X1393814Y784832D01*
X1393883Y784772D01*
X1394710Y784243D01*
X1394756Y784224D01*
X1394837Y784180D01*
X1395760Y783848D01*
X1395810Y783840D01*
X1395899Y783815D01*
X1396873Y783697D01*
X1396923Y783700D01*
X1397009Y783696D01*
X1398011Y783791D01*
G37*
G36*
X1207511Y783791D02*
X1207511Y783791D01*
X1207560Y783805D01*
X1207650Y783821D01*
X1208606Y784137D01*
X1208651Y784161D01*
X1208735Y784197D01*
X1209596Y784718D01*
X1209634Y784751D01*
X1209709Y784804D01*
X1210433Y785504D01*
X1210462Y785545D01*
X1210523Y785614D01*
X1211073Y786457D01*
X1211093Y786503D01*
X1211137Y786584D01*
X1211485Y787528D01*
X1211494Y787578D01*
X1211519Y787666D01*
X1211649Y788664D01*
X1211647Y788707D01*
X1211648Y788833D01*
X1211509Y789844D01*
X1211493Y789892D01*
X1211474Y789982D01*
X1211112Y790937D01*
X1211086Y790980D01*
X1211048Y791064D01*
X1210483Y791914D01*
X1210448Y791951D01*
X1210391Y792023D01*
X1209652Y792727D01*
X1209609Y792755D01*
X1209538Y792813D01*
X1208660Y793334D01*
X1208613Y793352D01*
X1208531Y793393D01*
X1207559Y793706D01*
X1207509Y793713D01*
X1207420Y793734D01*
X1206402Y793823D01*
X1206352Y793818D01*
X1206261Y793819D01*
X1205297Y793688D01*
X1205249Y793672D01*
X1205160Y793653D01*
X1204249Y793311D01*
X1204206Y793285D01*
X1204123Y793246D01*
X1203311Y792709D01*
X1203275Y792674D01*
X1203202Y792618D01*
X1202530Y791914D01*
X1202503Y791872D01*
X1202444Y791801D01*
X1201946Y790966D01*
X1201928Y790918D01*
X1201888Y790836D01*
X1201588Y789911D01*
X1201581Y789860D01*
X1201559Y789771D01*
X1201473Y788802D01*
X1201477Y788755D01*
X1201474Y788680D01*
X1201576Y787704D01*
X1201590Y787656D01*
X1201606Y787566D01*
X1201922Y786637D01*
X1201947Y786593D01*
X1201983Y786508D01*
X1202497Y785673D01*
X1202531Y785636D01*
X1202585Y785561D01*
X1203273Y784862D01*
X1203314Y784832D01*
X1203383Y784772D01*
X1204210Y784243D01*
X1204256Y784224D01*
X1204337Y784180D01*
X1205260Y783848D01*
X1205310Y783840D01*
X1205399Y783815D01*
X1206373Y783697D01*
X1206423Y783700D01*
X1206509Y783696D01*
X1207511Y783791D01*
G37*
G36*
X1245611Y783791D02*
X1245611Y783791D01*
X1245660Y783805D01*
X1245750Y783821D01*
X1246706Y784137D01*
X1246751Y784161D01*
X1246835Y784197D01*
X1247696Y784718D01*
X1247734Y784751D01*
X1247809Y784804D01*
X1248533Y785504D01*
X1248562Y785545D01*
X1248623Y785614D01*
X1249173Y786457D01*
X1249193Y786503D01*
X1249237Y786584D01*
X1249585Y787528D01*
X1249594Y787578D01*
X1249619Y787666D01*
X1249749Y788664D01*
X1249747Y788707D01*
X1249748Y788833D01*
X1249609Y789844D01*
X1249593Y789892D01*
X1249574Y789982D01*
X1249212Y790937D01*
X1249186Y790980D01*
X1249148Y791064D01*
X1248583Y791914D01*
X1248548Y791951D01*
X1248491Y792023D01*
X1247752Y792727D01*
X1247709Y792755D01*
X1247638Y792813D01*
X1246760Y793334D01*
X1246713Y793352D01*
X1246631Y793393D01*
X1245659Y793706D01*
X1245609Y793713D01*
X1245520Y793734D01*
X1244502Y793823D01*
X1244452Y793818D01*
X1244361Y793819D01*
X1243397Y793688D01*
X1243349Y793672D01*
X1243260Y793653D01*
X1242349Y793311D01*
X1242306Y793285D01*
X1242223Y793246D01*
X1241411Y792709D01*
X1241375Y792674D01*
X1241302Y792618D01*
X1240630Y791914D01*
X1240603Y791872D01*
X1240544Y791801D01*
X1240046Y790966D01*
X1240028Y790918D01*
X1239988Y790836D01*
X1239688Y789911D01*
X1239681Y789860D01*
X1239659Y789771D01*
X1239573Y788802D01*
X1239577Y788755D01*
X1239574Y788680D01*
X1239676Y787704D01*
X1239690Y787656D01*
X1239706Y787566D01*
X1240022Y786637D01*
X1240047Y786593D01*
X1240083Y786508D01*
X1240597Y785673D01*
X1240631Y785636D01*
X1240685Y785561D01*
X1241373Y784862D01*
X1241414Y784832D01*
X1241483Y784772D01*
X1242310Y784243D01*
X1242356Y784224D01*
X1242437Y784180D01*
X1243360Y783848D01*
X1243410Y783840D01*
X1243499Y783815D01*
X1244473Y783697D01*
X1244523Y783700D01*
X1244609Y783696D01*
X1245611Y783791D01*
G37*
G36*
X1017011Y755800D02*
X1017011Y755800D01*
X1017060Y755814D01*
X1017150Y755830D01*
X1018106Y756146D01*
X1018151Y756170D01*
X1018235Y756206D01*
X1019096Y756727D01*
X1019134Y756760D01*
X1019209Y756813D01*
X1019933Y757513D01*
X1019962Y757554D01*
X1020023Y757623D01*
X1020573Y758466D01*
X1020593Y758512D01*
X1020637Y758593D01*
X1020985Y759537D01*
X1020994Y759587D01*
X1021019Y759675D01*
X1021149Y760673D01*
X1021147Y760716D01*
X1021148Y760842D01*
X1021009Y761853D01*
X1020993Y761901D01*
X1020974Y761991D01*
X1020612Y762946D01*
X1020586Y762989D01*
X1020548Y763073D01*
X1019983Y763923D01*
X1019948Y763960D01*
X1019891Y764032D01*
X1019152Y764736D01*
X1019109Y764764D01*
X1019038Y764822D01*
X1018160Y765343D01*
X1018113Y765361D01*
X1018031Y765402D01*
X1017059Y765715D01*
X1017009Y765722D01*
X1016920Y765743D01*
X1015902Y765832D01*
X1015852Y765827D01*
X1015761Y765828D01*
X1014797Y765697D01*
X1014749Y765681D01*
X1014660Y765662D01*
X1013749Y765320D01*
X1013706Y765294D01*
X1013623Y765255D01*
X1012811Y764718D01*
X1012775Y764683D01*
X1012702Y764627D01*
X1012030Y763923D01*
X1012003Y763881D01*
X1011944Y763810D01*
X1011446Y762975D01*
X1011428Y762927D01*
X1011388Y762845D01*
X1011088Y761920D01*
X1011081Y761869D01*
X1011059Y761780D01*
X1010973Y760811D01*
X1010977Y760764D01*
X1010974Y760689D01*
X1011076Y759713D01*
X1011090Y759665D01*
X1011106Y759575D01*
X1011422Y758646D01*
X1011447Y758602D01*
X1011483Y758517D01*
X1011997Y757682D01*
X1012031Y757645D01*
X1012085Y757570D01*
X1012773Y756871D01*
X1012814Y756841D01*
X1012883Y756781D01*
X1013710Y756252D01*
X1013756Y756233D01*
X1013837Y756189D01*
X1014760Y755857D01*
X1014810Y755849D01*
X1014899Y755824D01*
X1015873Y755706D01*
X1015923Y755709D01*
X1016009Y755705D01*
X1017011Y755800D01*
G37*
G36*
X1398011Y755800D02*
X1398011Y755800D01*
X1398060Y755814D01*
X1398150Y755830D01*
X1399106Y756146D01*
X1399151Y756170D01*
X1399235Y756206D01*
X1400096Y756727D01*
X1400134Y756760D01*
X1400209Y756813D01*
X1400933Y757513D01*
X1400962Y757554D01*
X1401023Y757623D01*
X1401573Y758466D01*
X1401593Y758512D01*
X1401637Y758593D01*
X1401985Y759537D01*
X1401994Y759587D01*
X1402019Y759675D01*
X1402149Y760673D01*
X1402147Y760716D01*
X1402148Y760842D01*
X1402009Y761853D01*
X1401993Y761901D01*
X1401974Y761991D01*
X1401612Y762946D01*
X1401586Y762989D01*
X1401548Y763073D01*
X1400983Y763923D01*
X1400948Y763960D01*
X1400891Y764032D01*
X1400152Y764736D01*
X1400109Y764764D01*
X1400038Y764822D01*
X1399160Y765343D01*
X1399113Y765361D01*
X1399031Y765402D01*
X1398059Y765715D01*
X1398009Y765722D01*
X1397920Y765743D01*
X1396902Y765832D01*
X1396852Y765827D01*
X1396761Y765828D01*
X1395797Y765697D01*
X1395749Y765681D01*
X1395660Y765662D01*
X1394749Y765320D01*
X1394706Y765294D01*
X1394623Y765255D01*
X1393811Y764718D01*
X1393775Y764683D01*
X1393702Y764627D01*
X1393030Y763923D01*
X1393003Y763881D01*
X1392944Y763810D01*
X1392446Y762975D01*
X1392428Y762927D01*
X1392388Y762845D01*
X1392088Y761920D01*
X1392081Y761869D01*
X1392059Y761780D01*
X1391973Y760811D01*
X1391977Y760764D01*
X1391974Y760689D01*
X1392076Y759713D01*
X1392090Y759665D01*
X1392106Y759575D01*
X1392422Y758646D01*
X1392447Y758602D01*
X1392483Y758517D01*
X1392997Y757682D01*
X1393031Y757645D01*
X1393085Y757570D01*
X1393773Y756871D01*
X1393814Y756841D01*
X1393883Y756781D01*
X1394710Y756252D01*
X1394756Y756233D01*
X1394837Y756189D01*
X1395760Y755857D01*
X1395810Y755849D01*
X1395899Y755824D01*
X1396873Y755706D01*
X1396923Y755709D01*
X1397009Y755705D01*
X1398011Y755800D01*
G37*
G36*
X1207511Y755800D02*
X1207511Y755800D01*
X1207560Y755814D01*
X1207650Y755830D01*
X1208606Y756146D01*
X1208651Y756170D01*
X1208735Y756206D01*
X1209596Y756727D01*
X1209634Y756760D01*
X1209709Y756813D01*
X1210433Y757513D01*
X1210462Y757554D01*
X1210523Y757623D01*
X1211073Y758466D01*
X1211093Y758512D01*
X1211137Y758593D01*
X1211485Y759537D01*
X1211494Y759587D01*
X1211519Y759675D01*
X1211649Y760673D01*
X1211647Y760716D01*
X1211648Y760842D01*
X1211509Y761853D01*
X1211493Y761901D01*
X1211474Y761991D01*
X1211112Y762946D01*
X1211086Y762989D01*
X1211048Y763073D01*
X1210483Y763923D01*
X1210448Y763960D01*
X1210391Y764032D01*
X1209652Y764736D01*
X1209609Y764764D01*
X1209538Y764822D01*
X1208660Y765343D01*
X1208613Y765361D01*
X1208531Y765402D01*
X1207559Y765715D01*
X1207509Y765722D01*
X1207420Y765743D01*
X1206402Y765832D01*
X1206352Y765827D01*
X1206261Y765828D01*
X1205297Y765697D01*
X1205249Y765681D01*
X1205160Y765662D01*
X1204249Y765320D01*
X1204206Y765294D01*
X1204123Y765255D01*
X1203311Y764718D01*
X1203275Y764683D01*
X1203202Y764627D01*
X1202530Y763923D01*
X1202503Y763881D01*
X1202444Y763810D01*
X1201946Y762975D01*
X1201928Y762927D01*
X1201888Y762845D01*
X1201588Y761920D01*
X1201581Y761869D01*
X1201559Y761780D01*
X1201473Y760811D01*
X1201477Y760764D01*
X1201474Y760689D01*
X1201576Y759713D01*
X1201590Y759665D01*
X1201606Y759575D01*
X1201922Y758646D01*
X1201947Y758602D01*
X1201983Y758517D01*
X1202497Y757682D01*
X1202531Y757645D01*
X1202585Y757570D01*
X1203273Y756871D01*
X1203314Y756841D01*
X1203383Y756781D01*
X1204210Y756252D01*
X1204256Y756233D01*
X1204337Y756189D01*
X1205260Y755857D01*
X1205310Y755849D01*
X1205399Y755824D01*
X1206373Y755706D01*
X1206423Y755709D01*
X1206509Y755705D01*
X1207511Y755800D01*
G37*
G36*
X864611Y755800D02*
X864611Y755800D01*
X864660Y755814D01*
X864750Y755830D01*
X865706Y756146D01*
X865751Y756170D01*
X865835Y756206D01*
X866696Y756727D01*
X866734Y756760D01*
X866809Y756813D01*
X867533Y757513D01*
X867562Y757554D01*
X867623Y757623D01*
X868173Y758466D01*
X868193Y758512D01*
X868237Y758593D01*
X868585Y759537D01*
X868594Y759587D01*
X868619Y759675D01*
X868749Y760673D01*
X868747Y760716D01*
X868748Y760842D01*
X868609Y761853D01*
X868593Y761901D01*
X868574Y761991D01*
X868212Y762946D01*
X868186Y762989D01*
X868148Y763073D01*
X867583Y763923D01*
X867548Y763960D01*
X867491Y764032D01*
X866752Y764736D01*
X866709Y764764D01*
X866638Y764822D01*
X865760Y765343D01*
X865713Y765361D01*
X865631Y765402D01*
X864659Y765715D01*
X864609Y765722D01*
X864520Y765743D01*
X863502Y765832D01*
X863452Y765827D01*
X863361Y765828D01*
X862397Y765697D01*
X862349Y765681D01*
X862260Y765662D01*
X861349Y765320D01*
X861306Y765294D01*
X861223Y765255D01*
X860411Y764718D01*
X860375Y764683D01*
X860302Y764627D01*
X859630Y763923D01*
X859603Y763881D01*
X859544Y763810D01*
X859046Y762975D01*
X859028Y762927D01*
X858988Y762845D01*
X858688Y761920D01*
X858681Y761869D01*
X858659Y761780D01*
X858573Y760811D01*
X858577Y760764D01*
X858574Y760689D01*
X858676Y759713D01*
X858690Y759665D01*
X858706Y759575D01*
X859022Y758646D01*
X859047Y758602D01*
X859083Y758517D01*
X859597Y757682D01*
X859631Y757645D01*
X859685Y757570D01*
X860373Y756871D01*
X860414Y756841D01*
X860483Y756781D01*
X861310Y756252D01*
X861356Y756233D01*
X861437Y756189D01*
X862360Y755857D01*
X862410Y755849D01*
X862499Y755824D01*
X863473Y755706D01*
X863523Y755709D01*
X863609Y755705D01*
X864611Y755800D01*
G37*
G36*
X1055111Y755800D02*
X1055111Y755800D01*
X1055160Y755814D01*
X1055250Y755830D01*
X1056206Y756146D01*
X1056251Y756170D01*
X1056335Y756206D01*
X1057196Y756727D01*
X1057234Y756760D01*
X1057309Y756813D01*
X1058033Y757513D01*
X1058062Y757554D01*
X1058123Y757623D01*
X1058673Y758466D01*
X1058693Y758512D01*
X1058737Y758593D01*
X1059085Y759537D01*
X1059094Y759587D01*
X1059119Y759675D01*
X1059249Y760673D01*
X1059247Y760716D01*
X1059248Y760842D01*
X1059109Y761853D01*
X1059093Y761901D01*
X1059074Y761991D01*
X1058712Y762946D01*
X1058686Y762989D01*
X1058648Y763073D01*
X1058083Y763923D01*
X1058048Y763960D01*
X1057991Y764032D01*
X1057252Y764736D01*
X1057209Y764764D01*
X1057138Y764822D01*
X1056260Y765343D01*
X1056213Y765361D01*
X1056131Y765402D01*
X1055159Y765715D01*
X1055109Y765722D01*
X1055020Y765743D01*
X1054002Y765832D01*
X1053952Y765827D01*
X1053861Y765828D01*
X1052897Y765697D01*
X1052849Y765681D01*
X1052760Y765662D01*
X1051849Y765320D01*
X1051806Y765294D01*
X1051723Y765255D01*
X1050911Y764718D01*
X1050875Y764683D01*
X1050802Y764627D01*
X1050130Y763923D01*
X1050103Y763881D01*
X1050044Y763810D01*
X1049546Y762975D01*
X1049528Y762927D01*
X1049488Y762845D01*
X1049188Y761920D01*
X1049181Y761869D01*
X1049159Y761780D01*
X1049073Y760811D01*
X1049077Y760764D01*
X1049074Y760689D01*
X1049176Y759713D01*
X1049190Y759665D01*
X1049206Y759575D01*
X1049522Y758646D01*
X1049547Y758602D01*
X1049583Y758517D01*
X1050097Y757682D01*
X1050131Y757645D01*
X1050185Y757570D01*
X1050873Y756871D01*
X1050914Y756841D01*
X1050983Y756781D01*
X1051810Y756252D01*
X1051856Y756233D01*
X1051937Y756189D01*
X1052860Y755857D01*
X1052910Y755849D01*
X1052999Y755824D01*
X1053973Y755706D01*
X1054023Y755709D01*
X1054109Y755705D01*
X1055111Y755800D01*
G37*
G36*
X1245611Y755800D02*
X1245611Y755800D01*
X1245660Y755814D01*
X1245750Y755830D01*
X1246706Y756146D01*
X1246751Y756170D01*
X1246835Y756206D01*
X1247696Y756727D01*
X1247734Y756760D01*
X1247809Y756813D01*
X1248533Y757513D01*
X1248562Y757554D01*
X1248623Y757623D01*
X1249173Y758466D01*
X1249193Y758512D01*
X1249237Y758593D01*
X1249585Y759537D01*
X1249594Y759587D01*
X1249619Y759675D01*
X1249749Y760673D01*
X1249747Y760716D01*
X1249748Y760842D01*
X1249609Y761853D01*
X1249593Y761901D01*
X1249574Y761991D01*
X1249212Y762946D01*
X1249186Y762989D01*
X1249148Y763073D01*
X1248583Y763923D01*
X1248548Y763960D01*
X1248491Y764032D01*
X1247752Y764736D01*
X1247709Y764764D01*
X1247638Y764822D01*
X1246760Y765343D01*
X1246713Y765361D01*
X1246631Y765402D01*
X1245659Y765715D01*
X1245609Y765722D01*
X1245520Y765743D01*
X1244502Y765832D01*
X1244452Y765827D01*
X1244361Y765828D01*
X1243397Y765697D01*
X1243349Y765681D01*
X1243260Y765662D01*
X1242349Y765320D01*
X1242306Y765294D01*
X1242223Y765255D01*
X1241411Y764718D01*
X1241375Y764683D01*
X1241302Y764627D01*
X1240630Y763923D01*
X1240603Y763881D01*
X1240544Y763810D01*
X1240046Y762975D01*
X1240028Y762927D01*
X1239988Y762845D01*
X1239688Y761920D01*
X1239681Y761869D01*
X1239659Y761780D01*
X1239573Y760811D01*
X1239577Y760764D01*
X1239574Y760689D01*
X1239676Y759713D01*
X1239690Y759665D01*
X1239706Y759575D01*
X1240022Y758646D01*
X1240047Y758602D01*
X1240083Y758517D01*
X1240597Y757682D01*
X1240631Y757645D01*
X1240685Y757570D01*
X1241373Y756871D01*
X1241414Y756841D01*
X1241483Y756781D01*
X1242310Y756252D01*
X1242356Y756233D01*
X1242437Y756189D01*
X1243360Y755857D01*
X1243410Y755849D01*
X1243499Y755824D01*
X1244473Y755706D01*
X1244523Y755709D01*
X1244609Y755705D01*
X1245611Y755800D01*
G37*
G36*
X83561Y415491D02*
X83561Y415491D01*
X83610Y415505D01*
X83700Y415521D01*
X84656Y415837D01*
X84701Y415861D01*
X84785Y415897D01*
X85646Y416418D01*
X85684Y416451D01*
X85759Y416504D01*
X86483Y417204D01*
X86512Y417245D01*
X86573Y417314D01*
X87123Y418157D01*
X87143Y418203D01*
X87187Y418284D01*
X87535Y419228D01*
X87544Y419278D01*
X87569Y419366D01*
X87699Y420364D01*
X87697Y420407D01*
X87698Y420533D01*
X87559Y421544D01*
X87543Y421592D01*
X87524Y421682D01*
X87162Y422637D01*
X87136Y422680D01*
X87098Y422764D01*
X86533Y423614D01*
X86498Y423651D01*
X86441Y423723D01*
X85702Y424427D01*
X85659Y424455D01*
X85588Y424513D01*
X84710Y425034D01*
X84663Y425052D01*
X84581Y425093D01*
X83609Y425406D01*
X83559Y425413D01*
X83470Y425434D01*
X82452Y425523D01*
X82402Y425518D01*
X82311Y425519D01*
X81347Y425388D01*
X81299Y425372D01*
X81210Y425353D01*
X80299Y425011D01*
X80256Y424985D01*
X80173Y424946D01*
X79361Y424409D01*
X79325Y424374D01*
X79252Y424318D01*
X78580Y423614D01*
X78553Y423572D01*
X78494Y423501D01*
X77996Y422666D01*
X77978Y422618D01*
X77938Y422536D01*
X77638Y421611D01*
X77631Y421560D01*
X77609Y421471D01*
X77523Y420502D01*
X77527Y420455D01*
X77524Y420380D01*
X77626Y419404D01*
X77640Y419356D01*
X77656Y419266D01*
X77972Y418337D01*
X77997Y418293D01*
X78033Y418208D01*
X78547Y417373D01*
X78581Y417336D01*
X78635Y417261D01*
X79323Y416562D01*
X79364Y416532D01*
X79433Y416472D01*
X80260Y415943D01*
X80306Y415924D01*
X80387Y415880D01*
X81310Y415548D01*
X81360Y415540D01*
X81449Y415515D01*
X82423Y415397D01*
X82473Y415400D01*
X82559Y415396D01*
X83561Y415491D01*
G37*
G36*
X83561Y387500D02*
X83561Y387500D01*
X83610Y387514D01*
X83700Y387530D01*
X84656Y387846D01*
X84701Y387870D01*
X84785Y387906D01*
X85646Y388427D01*
X85684Y388460D01*
X85759Y388513D01*
X86483Y389213D01*
X86512Y389254D01*
X86573Y389323D01*
X87123Y390166D01*
X87143Y390212D01*
X87187Y390293D01*
X87535Y391237D01*
X87544Y391287D01*
X87569Y391375D01*
X87699Y392373D01*
X87697Y392416D01*
X87698Y392542D01*
X87559Y393553D01*
X87543Y393601D01*
X87524Y393691D01*
X87162Y394646D01*
X87136Y394689D01*
X87098Y394773D01*
X86533Y395623D01*
X86498Y395660D01*
X86441Y395732D01*
X85702Y396436D01*
X85659Y396464D01*
X85588Y396522D01*
X84710Y397043D01*
X84663Y397061D01*
X84581Y397102D01*
X83609Y397415D01*
X83559Y397422D01*
X83470Y397443D01*
X82452Y397532D01*
X82402Y397527D01*
X82311Y397528D01*
X81347Y397397D01*
X81299Y397381D01*
X81210Y397362D01*
X80299Y397020D01*
X80256Y396994D01*
X80173Y396955D01*
X79361Y396418D01*
X79325Y396383D01*
X79252Y396327D01*
X78580Y395623D01*
X78553Y395581D01*
X78494Y395510D01*
X77996Y394675D01*
X77978Y394627D01*
X77938Y394545D01*
X77638Y393620D01*
X77631Y393569D01*
X77609Y393480D01*
X77523Y392511D01*
X77527Y392464D01*
X77524Y392389D01*
X77626Y391413D01*
X77640Y391365D01*
X77656Y391275D01*
X77972Y390346D01*
X77997Y390302D01*
X78033Y390217D01*
X78547Y389382D01*
X78581Y389345D01*
X78635Y389270D01*
X79323Y388571D01*
X79364Y388541D01*
X79433Y388481D01*
X80260Y387952D01*
X80306Y387933D01*
X80387Y387889D01*
X81310Y387557D01*
X81360Y387549D01*
X81449Y387524D01*
X82423Y387406D01*
X82473Y387409D01*
X82559Y387405D01*
X83561Y387500D01*
G37*
D10*
X-15875Y193675D03*
X12700Y987425D03*
X1422400Y184150D03*
X1431925Y987425D03*
D11*
X90170Y663575D02*
X74930Y663575D01*
X74930Y638175D02*
X90170Y638175D01*
X90170Y612775D02*
X74930Y612775D01*
D12*
X1282700Y838200D03*
X1282700Y812800D03*
X1282700Y787400D03*
X1282700Y762000D03*
X1358900Y762000D03*
X1358900Y787400D03*
X1358900Y812800D03*
X1358900Y838200D03*
D11*
X782320Y480060D02*
X767080Y480060D01*
X767080Y505460D02*
X782320Y505460D01*
X782320Y530860D02*
X767080Y530860D01*
X767080Y556260D02*
X782320Y556260D01*
X782320Y581660D02*
X767080Y581660D01*
X767080Y607060D02*
X782320Y607060D01*
X782320Y632460D02*
X767080Y632460D01*
X767080Y657860D02*
X782320Y657860D01*
X782320Y698500D02*
X767080Y698500D01*
X767080Y723900D02*
X782320Y723900D01*
X782320Y749300D02*
X767080Y749300D01*
X767080Y774700D02*
X782320Y774700D01*
X782320Y800100D02*
X767080Y800100D01*
X767080Y825500D02*
X782320Y825500D01*
X782320Y850900D02*
X767080Y850900D01*
X767080Y876300D02*
X782320Y876300D01*
X299720Y571500D02*
X284480Y571500D01*
X284480Y596900D02*
X299720Y596900D01*
X299720Y622300D02*
X284480Y622300D01*
X284480Y647700D02*
X299720Y647700D01*
X299720Y673100D02*
X284480Y673100D01*
X284480Y698500D02*
X299720Y698500D01*
X299720Y749300D02*
X284480Y749300D01*
X284480Y774700D02*
X299720Y774700D01*
X299720Y800100D02*
X284480Y800100D01*
X284480Y825500D02*
X299720Y825500D01*
X299720Y850900D02*
X284480Y850900D01*
X284480Y876300D02*
X299720Y876300D01*
D13*
X774700Y393700D03*
X622300Y901700D03*
X342900Y901700D03*
D14*
X537838Y792996D03*
D15*
X1362260Y889000D03*
D16*
X1279340Y889000D03*
D17*
X415925Y527050D03*
X492125Y527050D03*
X520700Y527050D03*
X596900Y527050D03*
X415925Y450850D03*
X492125Y450850D03*
X520700Y450850D03*
X596900Y450850D03*
X415925Y374650D03*
X492125Y374650D03*
X520700Y374650D03*
X596900Y374650D03*
X415925Y565150D03*
X492125Y565150D03*
X415925Y488950D03*
X492125Y488950D03*
X415925Y412750D03*
X492125Y412750D03*
D18*
X21475Y234675D03*
D19*
X21475Y279675D03*
D18*
X86475Y234675D03*
X86475Y279675D03*
X21475Y307700D03*
D19*
X21475Y352700D03*
D18*
X86475Y307700D03*
X86475Y352700D03*
D20*
X1295400Y448628D02*
X1295400Y465773D01*
X1320800Y465773D02*
X1320800Y448628D01*
X1346200Y448628D02*
X1346200Y465773D01*
D21*
X1320800Y622300D03*
D20*
X1346200Y402273D02*
X1346200Y385128D01*
X1320800Y385128D02*
X1320800Y402273D01*
X1295400Y402273D02*
X1295400Y385128D01*
D21*
X1320800Y228600D03*
D20*
X1104900Y448628D02*
X1104900Y465773D01*
X1130300Y465773D02*
X1130300Y448628D01*
X1155700Y448628D02*
X1155700Y465773D01*
D21*
X1130300Y622300D03*
D20*
X1155700Y402273D02*
X1155700Y385128D01*
X1130300Y385128D02*
X1130300Y402273D01*
X1104900Y402273D02*
X1104900Y385128D01*
D21*
X1130300Y228600D03*
D20*
X914400Y448628D02*
X914400Y465773D01*
X939800Y465773D02*
X939800Y448628D01*
X965200Y448628D02*
X965200Y465773D01*
D21*
X939800Y622300D03*
D20*
X965200Y402273D02*
X965200Y385128D01*
X939800Y385128D02*
X939800Y402273D01*
X914400Y402273D02*
X914400Y385128D01*
D21*
X939800Y228600D03*
D17*
X1282700Y698500D03*
X1358900Y698500D03*
X1282700Y723900D03*
X1358900Y723900D03*
X1092200Y698500D03*
X1168400Y698500D03*
X1092200Y723900D03*
X1168400Y723900D03*
X901700Y698500D03*
X977900Y698500D03*
X901700Y723900D03*
X977900Y723900D03*
D22*
X192750Y809625D03*
X158750Y809625D03*
X192750Y674925D03*
X158750Y674925D03*
D23*
X57150Y847725D03*
X57150Y746125D03*
D24*
X159150Y555625D03*
D25*
X209150Y555625D03*
D24*
X159150Y415925D03*
D25*
X209150Y415925D03*
D24*
X159150Y276225D03*
D25*
X209150Y276225D03*
D11*
X90170Y533400D02*
X74930Y533400D01*
X74930Y508000D02*
X90170Y508000D01*
X90170Y482600D02*
X74930Y482600D01*
D12*
X1092200Y838200D03*
X1092200Y812800D03*
X1092200Y787400D03*
X1092200Y762000D03*
X1168400Y762000D03*
X1168400Y787400D03*
X1168400Y812800D03*
X1168400Y838200D03*
D15*
X1171760Y889000D03*
D16*
X1088840Y889000D03*
D12*
X901700Y838200D03*
X901700Y812800D03*
X901700Y787400D03*
X901700Y762000D03*
X977900Y762000D03*
X977900Y787400D03*
X977900Y812800D03*
X977900Y838200D03*
D15*
X981260Y889000D03*
D16*
X898340Y889000D03*
D26*
X44450Y393700D03*
D27*
X990600Y647700D03*
X1181100Y647700D03*
X1371600Y647700D03*
D26*
X44450Y422275D03*
D27*
X1390650Y374650D03*
X1384300Y231775D03*
X1006475Y374650D03*
X1000125Y238125D03*
X1196975Y374650D03*
X1190625Y231775D03*
X723900Y561975D03*
X723900Y482600D03*
M02*
