G04 EAGLE Gerber RS-274X export*
G75*
%MOMM*%
%FSLAX34Y34*%
%LPD*%
%INBottom Copper*%
%IPPOS*%
%AMOC8*
5,1,8,0,0,1.08239X$1,22.5*%
G01*
%ADD10C,0.152400*%
%ADD11C,1.524000*%
%ADD12C,2.032000*%
%ADD13C,1.343400*%
%ADD14R,1.238000X1.238000*%
%ADD15C,1.238000*%
%ADD16C,1.879600*%
%ADD17C,1.498000*%
%ADD18R,1.498000X1.498000*%
%ADD19C,1.714500*%
%ADD20P,2.841274X8X292.500000*%
%ADD21R,5.080000X10.160000*%
%ADD22C,1.981200*%
%ADD23C,1.930400*%
%ADD24R,1.930400X1.930400*%
%ADD25C,1.270000*%
%ADD26C,0.762000*%
%ADD27C,1.778000*%
%ADD28C,1.300000*%
%ADD29C,0.508000*%


D10*
X534938Y877062D02*
X538551Y877062D01*
X538669Y877064D01*
X538787Y877070D01*
X538905Y877079D01*
X539022Y877093D01*
X539139Y877110D01*
X539256Y877131D01*
X539371Y877156D01*
X539486Y877185D01*
X539600Y877218D01*
X539712Y877254D01*
X539823Y877294D01*
X539933Y877337D01*
X540042Y877384D01*
X540149Y877434D01*
X540254Y877489D01*
X540357Y877546D01*
X540458Y877607D01*
X540558Y877671D01*
X540655Y877738D01*
X540750Y877808D01*
X540842Y877882D01*
X540933Y877958D01*
X541020Y878038D01*
X541105Y878120D01*
X541187Y878205D01*
X541267Y878292D01*
X541343Y878383D01*
X541417Y878475D01*
X541487Y878570D01*
X541554Y878667D01*
X541618Y878767D01*
X541679Y878868D01*
X541736Y878971D01*
X541791Y879076D01*
X541841Y879183D01*
X541888Y879292D01*
X541931Y879402D01*
X541971Y879513D01*
X542007Y879625D01*
X542040Y879739D01*
X542069Y879854D01*
X542094Y879969D01*
X542115Y880086D01*
X542132Y880203D01*
X542146Y880320D01*
X542155Y880438D01*
X542161Y880556D01*
X542163Y880674D01*
X542163Y889706D01*
X542161Y889824D01*
X542155Y889942D01*
X542146Y890060D01*
X542132Y890177D01*
X542115Y890294D01*
X542094Y890411D01*
X542069Y890526D01*
X542040Y890641D01*
X542007Y890755D01*
X541971Y890867D01*
X541931Y890978D01*
X541888Y891088D01*
X541841Y891197D01*
X541791Y891304D01*
X541736Y891409D01*
X541679Y891512D01*
X541618Y891613D01*
X541554Y891713D01*
X541487Y891810D01*
X541417Y891905D01*
X541343Y891997D01*
X541267Y892088D01*
X541187Y892175D01*
X541105Y892260D01*
X541020Y892342D01*
X540933Y892422D01*
X540842Y892498D01*
X540750Y892572D01*
X540655Y892642D01*
X540558Y892709D01*
X540458Y892773D01*
X540357Y892834D01*
X540254Y892891D01*
X540149Y892946D01*
X540042Y892996D01*
X539933Y893043D01*
X539823Y893086D01*
X539712Y893126D01*
X539600Y893162D01*
X539486Y893195D01*
X539371Y893224D01*
X539256Y893249D01*
X539139Y893270D01*
X539022Y893287D01*
X538905Y893301D01*
X538787Y893310D01*
X538669Y893316D01*
X538551Y893318D01*
X534938Y893318D01*
X529236Y884287D02*
X529236Y880674D01*
X529236Y884287D02*
X529234Y884406D01*
X529228Y884526D01*
X529218Y884645D01*
X529204Y884763D01*
X529187Y884882D01*
X529165Y884999D01*
X529140Y885116D01*
X529110Y885231D01*
X529077Y885346D01*
X529040Y885460D01*
X529000Y885572D01*
X528955Y885683D01*
X528907Y885792D01*
X528856Y885900D01*
X528801Y886006D01*
X528742Y886110D01*
X528680Y886212D01*
X528615Y886312D01*
X528546Y886410D01*
X528474Y886506D01*
X528399Y886599D01*
X528322Y886689D01*
X528241Y886777D01*
X528157Y886862D01*
X528070Y886944D01*
X527981Y887024D01*
X527889Y887100D01*
X527795Y887174D01*
X527698Y887244D01*
X527600Y887311D01*
X527499Y887375D01*
X527395Y887435D01*
X527290Y887492D01*
X527183Y887545D01*
X527075Y887595D01*
X526965Y887641D01*
X526853Y887683D01*
X526740Y887722D01*
X526626Y887757D01*
X526511Y887788D01*
X526394Y887816D01*
X526277Y887839D01*
X526160Y887859D01*
X526041Y887875D01*
X525922Y887887D01*
X525803Y887895D01*
X525684Y887899D01*
X525564Y887899D01*
X525445Y887895D01*
X525326Y887887D01*
X525207Y887875D01*
X525088Y887859D01*
X524971Y887839D01*
X524854Y887816D01*
X524737Y887788D01*
X524622Y887757D01*
X524508Y887722D01*
X524395Y887683D01*
X524283Y887641D01*
X524173Y887595D01*
X524065Y887545D01*
X523958Y887492D01*
X523853Y887435D01*
X523749Y887375D01*
X523648Y887311D01*
X523550Y887244D01*
X523453Y887174D01*
X523359Y887100D01*
X523267Y887024D01*
X523178Y886944D01*
X523091Y886862D01*
X523007Y886777D01*
X522926Y886689D01*
X522849Y886599D01*
X522774Y886506D01*
X522702Y886410D01*
X522633Y886312D01*
X522568Y886212D01*
X522506Y886110D01*
X522447Y886006D01*
X522392Y885900D01*
X522341Y885792D01*
X522293Y885683D01*
X522248Y885572D01*
X522208Y885460D01*
X522171Y885346D01*
X522138Y885231D01*
X522108Y885116D01*
X522083Y884999D01*
X522061Y884882D01*
X522044Y884763D01*
X522030Y884645D01*
X522020Y884526D01*
X522014Y884406D01*
X522012Y884287D01*
X522012Y880674D01*
X522014Y880555D01*
X522020Y880435D01*
X522030Y880316D01*
X522044Y880198D01*
X522061Y880079D01*
X522083Y879962D01*
X522108Y879845D01*
X522138Y879730D01*
X522171Y879615D01*
X522208Y879501D01*
X522248Y879389D01*
X522293Y879278D01*
X522341Y879169D01*
X522392Y879061D01*
X522447Y878955D01*
X522506Y878851D01*
X522568Y878749D01*
X522633Y878649D01*
X522702Y878551D01*
X522774Y878455D01*
X522849Y878362D01*
X522926Y878272D01*
X523007Y878184D01*
X523091Y878099D01*
X523178Y878017D01*
X523267Y877937D01*
X523359Y877861D01*
X523453Y877787D01*
X523550Y877717D01*
X523648Y877650D01*
X523749Y877586D01*
X523853Y877526D01*
X523958Y877469D01*
X524065Y877416D01*
X524173Y877366D01*
X524283Y877320D01*
X524395Y877278D01*
X524508Y877239D01*
X524622Y877204D01*
X524737Y877173D01*
X524854Y877145D01*
X524971Y877122D01*
X525088Y877102D01*
X525207Y877086D01*
X525326Y877074D01*
X525445Y877066D01*
X525564Y877062D01*
X525684Y877062D01*
X525803Y877066D01*
X525922Y877074D01*
X526041Y877086D01*
X526160Y877102D01*
X526277Y877122D01*
X526394Y877145D01*
X526511Y877173D01*
X526626Y877204D01*
X526740Y877239D01*
X526853Y877278D01*
X526965Y877320D01*
X527075Y877366D01*
X527183Y877416D01*
X527290Y877469D01*
X527395Y877526D01*
X527499Y877586D01*
X527600Y877650D01*
X527698Y877717D01*
X527795Y877787D01*
X527889Y877861D01*
X527981Y877937D01*
X528070Y878017D01*
X528157Y878099D01*
X528241Y878184D01*
X528322Y878272D01*
X528399Y878362D01*
X528474Y878455D01*
X528546Y878551D01*
X528615Y878649D01*
X528680Y878749D01*
X528742Y878851D01*
X528801Y878955D01*
X528856Y879061D01*
X528907Y879169D01*
X528955Y879278D01*
X529000Y879389D01*
X529040Y879501D01*
X529077Y879615D01*
X529110Y879730D01*
X529140Y879845D01*
X529165Y879962D01*
X529187Y880079D01*
X529204Y880198D01*
X529218Y880316D01*
X529228Y880435D01*
X529234Y880555D01*
X529236Y880674D01*
X515168Y877062D02*
X515168Y887899D01*
X510653Y887899D01*
X510549Y887897D01*
X510446Y887891D01*
X510342Y887881D01*
X510239Y887867D01*
X510137Y887849D01*
X510036Y887828D01*
X509935Y887802D01*
X509836Y887773D01*
X509737Y887740D01*
X509640Y887703D01*
X509545Y887662D01*
X509451Y887618D01*
X509359Y887570D01*
X509269Y887519D01*
X509180Y887464D01*
X509094Y887406D01*
X509011Y887344D01*
X508929Y887280D01*
X508851Y887212D01*
X508775Y887142D01*
X508701Y887069D01*
X508631Y886992D01*
X508563Y886914D01*
X508499Y886832D01*
X508437Y886749D01*
X508379Y886663D01*
X508324Y886574D01*
X508273Y886484D01*
X508225Y886392D01*
X508181Y886298D01*
X508140Y886203D01*
X508103Y886106D01*
X508070Y886007D01*
X508041Y885908D01*
X508015Y885807D01*
X507994Y885706D01*
X507976Y885604D01*
X507962Y885501D01*
X507952Y885397D01*
X507946Y885294D01*
X507944Y885190D01*
X507944Y877062D01*
X502398Y887899D02*
X496979Y887899D01*
X500591Y893318D02*
X500591Y879771D01*
X500589Y879670D01*
X500583Y879569D01*
X500574Y879468D01*
X500561Y879367D01*
X500544Y879267D01*
X500523Y879168D01*
X500499Y879070D01*
X500471Y878973D01*
X500439Y878876D01*
X500404Y878781D01*
X500365Y878688D01*
X500323Y878596D01*
X500277Y878505D01*
X500228Y878417D01*
X500176Y878330D01*
X500120Y878245D01*
X500062Y878162D01*
X500000Y878082D01*
X499935Y878004D01*
X499868Y877928D01*
X499798Y877855D01*
X499725Y877785D01*
X499649Y877718D01*
X499571Y877653D01*
X499491Y877591D01*
X499408Y877533D01*
X499323Y877477D01*
X499237Y877425D01*
X499148Y877376D01*
X499057Y877330D01*
X498965Y877288D01*
X498872Y877249D01*
X498777Y877214D01*
X498680Y877182D01*
X498583Y877154D01*
X498485Y877130D01*
X498386Y877109D01*
X498286Y877092D01*
X498185Y877079D01*
X498084Y877070D01*
X497983Y877064D01*
X497882Y877062D01*
X496979Y877062D01*
X490595Y877062D02*
X490595Y887899D01*
X485176Y887899D01*
X485176Y886093D01*
X480259Y884287D02*
X480259Y880674D01*
X480258Y884287D02*
X480256Y884406D01*
X480250Y884526D01*
X480240Y884645D01*
X480226Y884763D01*
X480209Y884882D01*
X480187Y884999D01*
X480162Y885116D01*
X480132Y885231D01*
X480099Y885346D01*
X480062Y885460D01*
X480022Y885572D01*
X479977Y885683D01*
X479929Y885792D01*
X479878Y885900D01*
X479823Y886006D01*
X479764Y886110D01*
X479702Y886212D01*
X479637Y886312D01*
X479568Y886410D01*
X479496Y886506D01*
X479421Y886599D01*
X479344Y886689D01*
X479263Y886777D01*
X479179Y886862D01*
X479092Y886944D01*
X479003Y887024D01*
X478911Y887100D01*
X478817Y887174D01*
X478720Y887244D01*
X478622Y887311D01*
X478521Y887375D01*
X478417Y887435D01*
X478312Y887492D01*
X478205Y887545D01*
X478097Y887595D01*
X477987Y887641D01*
X477875Y887683D01*
X477762Y887722D01*
X477648Y887757D01*
X477533Y887788D01*
X477416Y887816D01*
X477299Y887839D01*
X477182Y887859D01*
X477063Y887875D01*
X476944Y887887D01*
X476825Y887895D01*
X476706Y887899D01*
X476586Y887899D01*
X476467Y887895D01*
X476348Y887887D01*
X476229Y887875D01*
X476110Y887859D01*
X475993Y887839D01*
X475876Y887816D01*
X475759Y887788D01*
X475644Y887757D01*
X475530Y887722D01*
X475417Y887683D01*
X475305Y887641D01*
X475195Y887595D01*
X475087Y887545D01*
X474980Y887492D01*
X474875Y887435D01*
X474771Y887375D01*
X474670Y887311D01*
X474572Y887244D01*
X474475Y887174D01*
X474381Y887100D01*
X474289Y887024D01*
X474200Y886944D01*
X474113Y886862D01*
X474029Y886777D01*
X473948Y886689D01*
X473871Y886599D01*
X473796Y886506D01*
X473724Y886410D01*
X473655Y886312D01*
X473590Y886212D01*
X473528Y886110D01*
X473469Y886006D01*
X473414Y885900D01*
X473363Y885792D01*
X473315Y885683D01*
X473270Y885572D01*
X473230Y885460D01*
X473193Y885346D01*
X473160Y885231D01*
X473130Y885116D01*
X473105Y884999D01*
X473083Y884882D01*
X473066Y884763D01*
X473052Y884645D01*
X473042Y884526D01*
X473036Y884406D01*
X473034Y884287D01*
X473034Y880674D01*
X473036Y880555D01*
X473042Y880435D01*
X473052Y880316D01*
X473066Y880198D01*
X473083Y880079D01*
X473105Y879962D01*
X473130Y879845D01*
X473160Y879730D01*
X473193Y879615D01*
X473230Y879501D01*
X473270Y879389D01*
X473315Y879278D01*
X473363Y879169D01*
X473414Y879061D01*
X473469Y878955D01*
X473528Y878851D01*
X473590Y878749D01*
X473655Y878649D01*
X473724Y878551D01*
X473796Y878455D01*
X473871Y878362D01*
X473948Y878272D01*
X474029Y878184D01*
X474113Y878099D01*
X474200Y878017D01*
X474289Y877937D01*
X474381Y877861D01*
X474475Y877787D01*
X474572Y877717D01*
X474670Y877650D01*
X474771Y877586D01*
X474875Y877526D01*
X474980Y877469D01*
X475087Y877416D01*
X475195Y877366D01*
X475305Y877320D01*
X475417Y877278D01*
X475530Y877239D01*
X475644Y877204D01*
X475759Y877173D01*
X475876Y877145D01*
X475993Y877122D01*
X476110Y877102D01*
X476229Y877086D01*
X476348Y877074D01*
X476467Y877066D01*
X476586Y877062D01*
X476706Y877062D01*
X476825Y877066D01*
X476944Y877074D01*
X477063Y877086D01*
X477182Y877102D01*
X477299Y877122D01*
X477416Y877145D01*
X477533Y877173D01*
X477648Y877204D01*
X477762Y877239D01*
X477875Y877278D01*
X477987Y877320D01*
X478097Y877366D01*
X478205Y877416D01*
X478312Y877469D01*
X478417Y877526D01*
X478521Y877586D01*
X478622Y877650D01*
X478720Y877717D01*
X478817Y877787D01*
X478911Y877861D01*
X479003Y877937D01*
X479092Y878017D01*
X479179Y878099D01*
X479263Y878184D01*
X479344Y878272D01*
X479421Y878362D01*
X479496Y878455D01*
X479568Y878551D01*
X479637Y878649D01*
X479702Y878749D01*
X479764Y878851D01*
X479823Y878955D01*
X479878Y879061D01*
X479929Y879169D01*
X479977Y879278D01*
X480022Y879389D01*
X480062Y879501D01*
X480099Y879615D01*
X480132Y879730D01*
X480162Y879845D01*
X480187Y879962D01*
X480209Y880079D01*
X480226Y880198D01*
X480240Y880316D01*
X480250Y880435D01*
X480256Y880555D01*
X480258Y880674D01*
X466475Y879771D02*
X466475Y893318D01*
X466474Y879771D02*
X466472Y879670D01*
X466466Y879569D01*
X466457Y879468D01*
X466444Y879367D01*
X466427Y879267D01*
X466406Y879168D01*
X466382Y879070D01*
X466354Y878973D01*
X466322Y878876D01*
X466287Y878781D01*
X466248Y878688D01*
X466206Y878596D01*
X466160Y878505D01*
X466111Y878417D01*
X466059Y878330D01*
X466003Y878245D01*
X465945Y878162D01*
X465883Y878082D01*
X465818Y878004D01*
X465751Y877928D01*
X465681Y877855D01*
X465608Y877785D01*
X465532Y877718D01*
X465454Y877653D01*
X465374Y877591D01*
X465291Y877533D01*
X465206Y877477D01*
X465120Y877425D01*
X465031Y877376D01*
X464940Y877330D01*
X464848Y877288D01*
X464755Y877249D01*
X464660Y877214D01*
X464563Y877182D01*
X464466Y877154D01*
X464368Y877130D01*
X464269Y877109D01*
X464169Y877092D01*
X464068Y877079D01*
X463967Y877070D01*
X463866Y877064D01*
X463765Y877062D01*
X458138Y879771D02*
X458138Y893318D01*
X458138Y879771D02*
X458136Y879670D01*
X458130Y879569D01*
X458121Y879468D01*
X458108Y879367D01*
X458091Y879267D01*
X458070Y879168D01*
X458046Y879070D01*
X458018Y878973D01*
X457986Y878876D01*
X457951Y878781D01*
X457912Y878688D01*
X457870Y878596D01*
X457824Y878505D01*
X457775Y878417D01*
X457723Y878330D01*
X457667Y878245D01*
X457609Y878162D01*
X457547Y878082D01*
X457482Y878004D01*
X457415Y877928D01*
X457345Y877855D01*
X457272Y877785D01*
X457196Y877718D01*
X457118Y877653D01*
X457038Y877591D01*
X456955Y877533D01*
X456870Y877477D01*
X456784Y877425D01*
X456695Y877376D01*
X456604Y877330D01*
X456512Y877288D01*
X456419Y877249D01*
X456324Y877214D01*
X456227Y877182D01*
X456130Y877154D01*
X456032Y877130D01*
X455933Y877109D01*
X455833Y877092D01*
X455732Y877079D01*
X455631Y877070D01*
X455530Y877064D01*
X455429Y877062D01*
X447329Y877062D02*
X442813Y877062D01*
X447329Y877062D02*
X447430Y877064D01*
X447531Y877070D01*
X447632Y877079D01*
X447733Y877092D01*
X447833Y877109D01*
X447932Y877130D01*
X448030Y877154D01*
X448127Y877182D01*
X448224Y877214D01*
X448319Y877249D01*
X448412Y877288D01*
X448504Y877330D01*
X448595Y877376D01*
X448684Y877425D01*
X448770Y877477D01*
X448855Y877533D01*
X448938Y877591D01*
X449018Y877653D01*
X449096Y877718D01*
X449172Y877785D01*
X449245Y877855D01*
X449315Y877928D01*
X449382Y878004D01*
X449447Y878082D01*
X449509Y878162D01*
X449567Y878245D01*
X449623Y878330D01*
X449675Y878417D01*
X449724Y878505D01*
X449770Y878596D01*
X449812Y878688D01*
X449851Y878781D01*
X449886Y878876D01*
X449918Y878973D01*
X449946Y879070D01*
X449970Y879168D01*
X449991Y879267D01*
X450008Y879367D01*
X450021Y879468D01*
X450030Y879569D01*
X450036Y879670D01*
X450038Y879771D01*
X450038Y884287D01*
X450036Y884406D01*
X450030Y884526D01*
X450020Y884645D01*
X450006Y884763D01*
X449989Y884882D01*
X449967Y884999D01*
X449942Y885116D01*
X449912Y885231D01*
X449879Y885346D01*
X449842Y885460D01*
X449802Y885572D01*
X449757Y885683D01*
X449709Y885792D01*
X449658Y885900D01*
X449603Y886006D01*
X449544Y886110D01*
X449482Y886212D01*
X449417Y886312D01*
X449348Y886410D01*
X449276Y886506D01*
X449201Y886599D01*
X449124Y886689D01*
X449043Y886777D01*
X448959Y886862D01*
X448872Y886944D01*
X448783Y887024D01*
X448691Y887100D01*
X448597Y887174D01*
X448500Y887244D01*
X448402Y887311D01*
X448301Y887375D01*
X448197Y887435D01*
X448092Y887492D01*
X447985Y887545D01*
X447877Y887595D01*
X447767Y887641D01*
X447655Y887683D01*
X447542Y887722D01*
X447428Y887757D01*
X447313Y887788D01*
X447196Y887816D01*
X447079Y887839D01*
X446962Y887859D01*
X446843Y887875D01*
X446724Y887887D01*
X446605Y887895D01*
X446486Y887899D01*
X446366Y887899D01*
X446247Y887895D01*
X446128Y887887D01*
X446009Y887875D01*
X445890Y887859D01*
X445773Y887839D01*
X445656Y887816D01*
X445539Y887788D01*
X445424Y887757D01*
X445310Y887722D01*
X445197Y887683D01*
X445085Y887641D01*
X444975Y887595D01*
X444867Y887545D01*
X444760Y887492D01*
X444655Y887435D01*
X444551Y887375D01*
X444450Y887311D01*
X444352Y887244D01*
X444255Y887174D01*
X444161Y887100D01*
X444069Y887024D01*
X443980Y886944D01*
X443893Y886862D01*
X443809Y886777D01*
X443728Y886689D01*
X443651Y886599D01*
X443576Y886506D01*
X443504Y886410D01*
X443435Y886312D01*
X443370Y886212D01*
X443308Y886110D01*
X443249Y886006D01*
X443194Y885900D01*
X443143Y885792D01*
X443095Y885683D01*
X443050Y885572D01*
X443010Y885460D01*
X442973Y885346D01*
X442940Y885231D01*
X442910Y885116D01*
X442885Y884999D01*
X442863Y884882D01*
X442846Y884763D01*
X442832Y884645D01*
X442822Y884526D01*
X442816Y884406D01*
X442814Y884287D01*
X442813Y884287D02*
X442813Y882481D01*
X450038Y882481D01*
X435885Y877062D02*
X435885Y887899D01*
X430467Y887899D01*
X430467Y886093D01*
X545338Y852043D02*
X545338Y835787D01*
X545338Y842109D02*
X536307Y852043D01*
X541726Y845721D02*
X536307Y835787D01*
X530057Y838496D02*
X530057Y846624D01*
X530056Y838496D02*
X530054Y838395D01*
X530048Y838294D01*
X530039Y838193D01*
X530026Y838092D01*
X530009Y837992D01*
X529988Y837893D01*
X529964Y837795D01*
X529936Y837698D01*
X529904Y837601D01*
X529869Y837506D01*
X529830Y837413D01*
X529788Y837321D01*
X529742Y837230D01*
X529693Y837142D01*
X529641Y837055D01*
X529585Y836970D01*
X529527Y836887D01*
X529465Y836807D01*
X529400Y836729D01*
X529333Y836653D01*
X529263Y836580D01*
X529190Y836510D01*
X529114Y836443D01*
X529036Y836378D01*
X528956Y836316D01*
X528873Y836258D01*
X528788Y836202D01*
X528702Y836150D01*
X528613Y836101D01*
X528522Y836055D01*
X528430Y836013D01*
X528337Y835974D01*
X528242Y835939D01*
X528145Y835907D01*
X528048Y835879D01*
X527950Y835855D01*
X527851Y835834D01*
X527751Y835817D01*
X527650Y835804D01*
X527549Y835795D01*
X527448Y835789D01*
X527347Y835787D01*
X522832Y835787D01*
X522832Y846624D01*
X515299Y852043D02*
X515299Y835787D01*
X515299Y841206D02*
X508074Y846624D01*
X512138Y843463D02*
X508074Y835787D01*
X499354Y842109D02*
X495290Y842109D01*
X499354Y842109D02*
X499466Y842107D01*
X499577Y842101D01*
X499688Y842091D01*
X499799Y842078D01*
X499909Y842060D01*
X500018Y842038D01*
X500127Y842013D01*
X500235Y841984D01*
X500341Y841951D01*
X500447Y841914D01*
X500551Y841874D01*
X500653Y841830D01*
X500754Y841782D01*
X500853Y841731D01*
X500951Y841676D01*
X501046Y841618D01*
X501139Y841557D01*
X501230Y841492D01*
X501319Y841424D01*
X501405Y841353D01*
X501488Y841280D01*
X501569Y841203D01*
X501648Y841123D01*
X501723Y841041D01*
X501795Y840956D01*
X501865Y840869D01*
X501931Y840779D01*
X501994Y840687D01*
X502054Y840592D01*
X502110Y840496D01*
X502163Y840398D01*
X502212Y840298D01*
X502258Y840196D01*
X502300Y840093D01*
X502339Y839988D01*
X502374Y839882D01*
X502405Y839775D01*
X502432Y839667D01*
X502456Y839558D01*
X502475Y839448D01*
X502491Y839338D01*
X502503Y839227D01*
X502511Y839115D01*
X502515Y839004D01*
X502515Y838892D01*
X502511Y838781D01*
X502503Y838669D01*
X502491Y838558D01*
X502475Y838448D01*
X502456Y838338D01*
X502432Y838229D01*
X502405Y838121D01*
X502374Y838014D01*
X502339Y837908D01*
X502300Y837803D01*
X502258Y837700D01*
X502212Y837598D01*
X502163Y837498D01*
X502110Y837400D01*
X502054Y837304D01*
X501994Y837209D01*
X501931Y837117D01*
X501865Y837027D01*
X501795Y836940D01*
X501723Y836855D01*
X501648Y836773D01*
X501569Y836693D01*
X501488Y836616D01*
X501405Y836543D01*
X501319Y836472D01*
X501230Y836404D01*
X501139Y836339D01*
X501046Y836278D01*
X500951Y836220D01*
X500853Y836165D01*
X500754Y836114D01*
X500653Y836066D01*
X500551Y836022D01*
X500447Y835982D01*
X500341Y835945D01*
X500235Y835912D01*
X500127Y835883D01*
X500018Y835858D01*
X499909Y835836D01*
X499799Y835818D01*
X499688Y835805D01*
X499577Y835795D01*
X499466Y835789D01*
X499354Y835787D01*
X495290Y835787D01*
X495290Y843915D01*
X495292Y844016D01*
X495298Y844117D01*
X495307Y844218D01*
X495320Y844319D01*
X495337Y844419D01*
X495358Y844518D01*
X495382Y844616D01*
X495410Y844713D01*
X495442Y844810D01*
X495477Y844905D01*
X495516Y844998D01*
X495558Y845090D01*
X495604Y845181D01*
X495653Y845270D01*
X495705Y845356D01*
X495761Y845441D01*
X495819Y845524D01*
X495881Y845604D01*
X495946Y845682D01*
X496013Y845758D01*
X496083Y845831D01*
X496156Y845901D01*
X496232Y845968D01*
X496310Y846033D01*
X496390Y846095D01*
X496473Y846153D01*
X496558Y846209D01*
X496645Y846261D01*
X496733Y846310D01*
X496824Y846356D01*
X496916Y846398D01*
X497009Y846437D01*
X497104Y846472D01*
X497201Y846504D01*
X497298Y846532D01*
X497396Y846556D01*
X497495Y846577D01*
X497595Y846594D01*
X497696Y846607D01*
X497797Y846616D01*
X497898Y846622D01*
X497999Y846624D01*
X501612Y846624D01*
X487852Y846624D02*
X487852Y835787D01*
X487852Y846624D02*
X483337Y846624D01*
X483233Y846622D01*
X483130Y846616D01*
X483026Y846606D01*
X482923Y846592D01*
X482821Y846574D01*
X482720Y846553D01*
X482619Y846527D01*
X482520Y846498D01*
X482421Y846465D01*
X482324Y846428D01*
X482229Y846387D01*
X482135Y846343D01*
X482043Y846295D01*
X481953Y846244D01*
X481864Y846189D01*
X481778Y846131D01*
X481695Y846069D01*
X481613Y846005D01*
X481535Y845937D01*
X481459Y845867D01*
X481385Y845794D01*
X481315Y845717D01*
X481247Y845639D01*
X481183Y845557D01*
X481121Y845474D01*
X481063Y845388D01*
X481008Y845299D01*
X480957Y845209D01*
X480909Y845117D01*
X480865Y845023D01*
X480824Y844928D01*
X480787Y844831D01*
X480754Y844732D01*
X480725Y844633D01*
X480699Y844532D01*
X480678Y844431D01*
X480660Y844329D01*
X480646Y844226D01*
X480636Y844122D01*
X480630Y844019D01*
X480628Y843915D01*
X480628Y835787D01*
X471148Y835787D02*
X466633Y835787D01*
X471148Y835787D02*
X471249Y835789D01*
X471350Y835795D01*
X471451Y835804D01*
X471552Y835817D01*
X471652Y835834D01*
X471751Y835855D01*
X471849Y835879D01*
X471946Y835907D01*
X472043Y835939D01*
X472138Y835974D01*
X472231Y836013D01*
X472323Y836055D01*
X472414Y836101D01*
X472503Y836150D01*
X472589Y836202D01*
X472674Y836258D01*
X472757Y836316D01*
X472837Y836378D01*
X472915Y836443D01*
X472991Y836510D01*
X473064Y836580D01*
X473134Y836653D01*
X473201Y836729D01*
X473266Y836807D01*
X473328Y836887D01*
X473386Y836970D01*
X473442Y837055D01*
X473494Y837142D01*
X473543Y837230D01*
X473589Y837321D01*
X473631Y837413D01*
X473670Y837506D01*
X473705Y837601D01*
X473737Y837698D01*
X473765Y837795D01*
X473789Y837893D01*
X473810Y837992D01*
X473827Y838092D01*
X473840Y838193D01*
X473849Y838294D01*
X473855Y838395D01*
X473857Y838496D01*
X473858Y838496D02*
X473858Y843915D01*
X473857Y843915D02*
X473855Y844016D01*
X473849Y844117D01*
X473840Y844218D01*
X473827Y844319D01*
X473810Y844419D01*
X473789Y844518D01*
X473765Y844616D01*
X473737Y844713D01*
X473705Y844810D01*
X473670Y844905D01*
X473631Y844998D01*
X473589Y845090D01*
X473543Y845181D01*
X473494Y845270D01*
X473442Y845356D01*
X473386Y845441D01*
X473328Y845524D01*
X473266Y845604D01*
X473201Y845682D01*
X473134Y845758D01*
X473064Y845831D01*
X472991Y845901D01*
X472915Y845968D01*
X472837Y846033D01*
X472757Y846095D01*
X472674Y846153D01*
X472589Y846209D01*
X472503Y846261D01*
X472414Y846310D01*
X472323Y846356D01*
X472231Y846398D01*
X472138Y846437D01*
X472043Y846472D01*
X471946Y846504D01*
X471849Y846532D01*
X471751Y846556D01*
X471652Y846577D01*
X471552Y846594D01*
X471451Y846607D01*
X471350Y846616D01*
X471249Y846622D01*
X471148Y846624D01*
X466633Y846624D01*
X466633Y833078D01*
X466635Y832977D01*
X466641Y832876D01*
X466650Y832775D01*
X466663Y832674D01*
X466680Y832574D01*
X466701Y832475D01*
X466725Y832377D01*
X466753Y832280D01*
X466785Y832183D01*
X466820Y832088D01*
X466859Y831995D01*
X466901Y831903D01*
X466947Y831812D01*
X466996Y831724D01*
X467048Y831637D01*
X467104Y831552D01*
X467162Y831469D01*
X467224Y831389D01*
X467289Y831311D01*
X467356Y831235D01*
X467426Y831162D01*
X467499Y831092D01*
X467575Y831025D01*
X467653Y830960D01*
X467733Y830898D01*
X467816Y830840D01*
X467901Y830784D01*
X467988Y830732D01*
X468076Y830683D01*
X468167Y830637D01*
X468259Y830595D01*
X468352Y830556D01*
X468447Y830521D01*
X468544Y830489D01*
X468641Y830461D01*
X468739Y830437D01*
X468838Y830416D01*
X468938Y830399D01*
X469039Y830386D01*
X469140Y830377D01*
X469241Y830371D01*
X469342Y830369D01*
X469342Y830368D02*
X472955Y830368D01*
X450690Y835787D02*
X443465Y835787D01*
X450690Y835787D02*
X450690Y852043D01*
X443465Y852043D01*
X445271Y844818D02*
X450690Y844818D01*
X438597Y852043D02*
X433178Y835787D01*
X427759Y852043D01*
D11*
X90170Y663575D02*
X74930Y663575D01*
X74930Y638175D02*
X90170Y638175D01*
X90170Y612775D02*
X74930Y612775D01*
D12*
X82550Y420370D03*
X82550Y392430D03*
D13*
X1282700Y838200D03*
X1282700Y812800D03*
X1282700Y787400D03*
X1282700Y762000D03*
X1358900Y762000D03*
X1358900Y787400D03*
X1358900Y812800D03*
X1358900Y838200D03*
D12*
X1397000Y788670D03*
X1397000Y760730D03*
D11*
X782320Y480060D02*
X767080Y480060D01*
X767080Y505460D02*
X782320Y505460D01*
X782320Y530860D02*
X767080Y530860D01*
X767080Y556260D02*
X782320Y556260D01*
X782320Y581660D02*
X767080Y581660D01*
X767080Y607060D02*
X782320Y607060D01*
X782320Y632460D02*
X767080Y632460D01*
X767080Y657860D02*
X782320Y657860D01*
X782320Y698500D02*
X767080Y698500D01*
X767080Y723900D02*
X782320Y723900D01*
X782320Y749300D02*
X767080Y749300D01*
X767080Y774700D02*
X782320Y774700D01*
X782320Y800100D02*
X767080Y800100D01*
X767080Y825500D02*
X782320Y825500D01*
X782320Y850900D02*
X767080Y850900D01*
X767080Y876300D02*
X782320Y876300D01*
X299720Y571500D02*
X284480Y571500D01*
X284480Y596900D02*
X299720Y596900D01*
X299720Y622300D02*
X284480Y622300D01*
X284480Y647700D02*
X299720Y647700D01*
X299720Y673100D02*
X284480Y673100D01*
X284480Y698500D02*
X299720Y698500D01*
X299720Y749300D02*
X284480Y749300D01*
X284480Y774700D02*
X299720Y774700D01*
X299720Y800100D02*
X284480Y800100D01*
X284480Y825500D02*
X299720Y825500D01*
X299720Y850900D02*
X284480Y850900D01*
X284480Y876300D02*
X299720Y876300D01*
D12*
X1244600Y788670D03*
X1244600Y760730D03*
D14*
X1362260Y889000D03*
D15*
X1279340Y889000D03*
D16*
X415925Y527050D03*
X492125Y527050D03*
X520700Y527050D03*
X596900Y527050D03*
X415925Y450850D03*
X492125Y450850D03*
X520700Y450850D03*
X596900Y450850D03*
X415925Y374650D03*
X492125Y374650D03*
X520700Y374650D03*
X596900Y374650D03*
X415925Y565150D03*
X492125Y565150D03*
X415925Y488950D03*
X492125Y488950D03*
X415925Y412750D03*
X492125Y412750D03*
D17*
X21475Y234675D03*
D18*
X21475Y279675D03*
D17*
X86475Y234675D03*
X86475Y279675D03*
X21475Y307700D03*
D18*
X21475Y352700D03*
D17*
X86475Y307700D03*
X86475Y352700D03*
D19*
X1295400Y448628D02*
X1295400Y465773D01*
X1320800Y465773D02*
X1320800Y448628D01*
X1346200Y448628D02*
X1346200Y465773D01*
X1346200Y402273D02*
X1346200Y385128D01*
X1320800Y385128D02*
X1320800Y402273D01*
X1295400Y402273D02*
X1295400Y385128D01*
X1104900Y448628D02*
X1104900Y465773D01*
X1130300Y465773D02*
X1130300Y448628D01*
X1155700Y448628D02*
X1155700Y465773D01*
X1155700Y402273D02*
X1155700Y385128D01*
X1130300Y385128D02*
X1130300Y402273D01*
X1104900Y402273D02*
X1104900Y385128D01*
X914400Y448628D02*
X914400Y465773D01*
X939800Y465773D02*
X939800Y448628D01*
X965200Y448628D02*
X965200Y465773D01*
X965200Y402273D02*
X965200Y385128D01*
X939800Y385128D02*
X939800Y402273D01*
X914400Y402273D02*
X914400Y385128D01*
D16*
X1282700Y698500D03*
X1358900Y698500D03*
X1282700Y723900D03*
X1358900Y723900D03*
X1092200Y698500D03*
X1168400Y698500D03*
X1092200Y723900D03*
X1168400Y723900D03*
X901700Y698500D03*
X977900Y698500D03*
X901700Y723900D03*
X977900Y723900D03*
D20*
X192750Y809625D03*
X158750Y809625D03*
X192750Y674925D03*
X158750Y674925D03*
D21*
X158750Y911225D03*
X57150Y911225D03*
D22*
X57150Y847725D03*
X57150Y746125D03*
D23*
X159150Y555625D03*
D24*
X209150Y555625D03*
D23*
X159150Y415925D03*
D24*
X209150Y415925D03*
D23*
X159150Y276225D03*
D24*
X209150Y276225D03*
D11*
X90170Y533400D02*
X74930Y533400D01*
X74930Y508000D02*
X90170Y508000D01*
X90170Y482600D02*
X74930Y482600D01*
D13*
X1092200Y838200D03*
X1092200Y812800D03*
X1092200Y787400D03*
X1092200Y762000D03*
X1168400Y762000D03*
X1168400Y787400D03*
X1168400Y812800D03*
X1168400Y838200D03*
D12*
X1206500Y788670D03*
X1206500Y760730D03*
X1054100Y788670D03*
X1054100Y760730D03*
D14*
X1171760Y889000D03*
D15*
X1088840Y889000D03*
D13*
X901700Y838200D03*
X901700Y812800D03*
X901700Y787400D03*
X901700Y762000D03*
X977900Y762000D03*
X977900Y787400D03*
X977900Y812800D03*
X977900Y838200D03*
D12*
X1016000Y788670D03*
X1016000Y760730D03*
X863600Y788670D03*
X863600Y760730D03*
D14*
X981260Y889000D03*
D15*
X898340Y889000D03*
D25*
X57150Y911225D02*
X57150Y847725D01*
X31750Y847725D01*
X19050Y835025D01*
X19050Y650875D01*
X31750Y638175D01*
X82550Y638175D01*
X130575Y638175D01*
X159150Y609600D02*
X159150Y555625D01*
X136925Y508000D02*
X159150Y485775D01*
X136925Y508000D02*
X82550Y508000D01*
X159150Y485775D02*
X159150Y415925D01*
X159150Y555625D01*
X159150Y415925D02*
X159150Y276225D01*
D26*
X863600Y760730D02*
X900430Y760730D01*
X901700Y762000D01*
X1054100Y760730D02*
X1055370Y762000D01*
X1092200Y762000D01*
X1244600Y760730D02*
X1245870Y762000D01*
X1282700Y762000D01*
X863600Y760730D02*
X862330Y760730D01*
X850900Y749300D01*
X1028700Y735330D02*
X1054100Y760730D01*
X1028700Y735330D02*
X1028700Y419100D01*
X1054100Y393700D01*
X1104900Y393700D01*
X1219200Y735330D02*
X1244600Y760730D01*
X1219200Y419100D02*
X1244600Y393700D01*
X1295400Y393700D01*
X1219200Y419100D02*
X1219200Y735330D01*
X1104900Y393700D02*
X1104900Y368300D01*
X1117600Y355600D01*
X1295400Y368300D02*
X1295400Y393700D01*
X1282700Y355600D02*
X1117600Y355600D01*
X1282700Y355600D02*
X1295400Y368300D01*
X914400Y393700D02*
X863600Y393700D01*
X850900Y406400D01*
X914400Y367257D02*
X926057Y355600D01*
X914400Y367257D02*
X914400Y393700D01*
X926057Y355600D02*
X1092200Y355600D01*
X1104900Y355600D01*
X1117600Y355600D01*
X1104900Y368300D02*
X1092200Y355600D01*
X1104900Y355600D02*
X1104900Y368300D01*
X774700Y505460D02*
X717550Y505460D01*
X850900Y406400D02*
X850900Y749300D01*
X1028700Y977900D02*
X79375Y977900D01*
X1028700Y977900D02*
X1054100Y952500D01*
X1206500Y952500D02*
X1241425Y917575D01*
X1206500Y952500D02*
X1054100Y952500D01*
X1241425Y917575D02*
X1368425Y917575D01*
X1384300Y901700D01*
X1422400Y377825D02*
X1400175Y355600D01*
X1308100Y355600D01*
X1295400Y355600D01*
X1282700Y355600D01*
X1422400Y377825D02*
X1422400Y828675D01*
X1384300Y866775D01*
X1384300Y901700D01*
X1295400Y368300D02*
X1308100Y355600D01*
X1295400Y355600D02*
X1295400Y368300D01*
X433832Y508000D02*
X433832Y552202D01*
X433832Y508000D02*
X433832Y501898D01*
X420884Y565150D02*
X415925Y565150D01*
X420884Y565150D02*
X433832Y552202D01*
X433832Y501898D02*
X420884Y488950D01*
X433832Y476002D02*
X433832Y425698D01*
X420884Y488950D02*
X415925Y488950D01*
X420884Y488950D02*
X433832Y476002D01*
X433832Y425698D02*
X420884Y412750D01*
X415925Y412750D01*
X415925Y565150D02*
X415925Y577850D01*
X425450Y587375D01*
X635635Y587375D01*
X717550Y505460D01*
X159150Y609600D02*
X130575Y638175D01*
D27*
X44450Y393700D03*
D25*
X45720Y392430D02*
X82550Y392430D01*
X45720Y392430D02*
X44450Y393700D01*
X82550Y392430D02*
X86475Y388505D01*
X86475Y352700D01*
D26*
X292100Y647700D02*
X314325Y647700D01*
X323850Y638175D02*
X323850Y365125D01*
X365125Y323850D01*
X323850Y638175D02*
X314325Y647700D01*
X365125Y323850D02*
X508000Y323850D01*
X542925Y492125D02*
X527050Y508000D01*
X433832Y508000D01*
X292100Y647700D02*
X292100Y673100D01*
X292100Y647700D02*
X276225Y647700D01*
X266700Y638175D01*
X244475Y209550D02*
X25400Y209550D01*
X3175Y231775D01*
X3175Y270150D01*
X3175Y279400D01*
X3175Y289200D01*
X3175Y339725D01*
X16150Y352700D02*
X21475Y352700D01*
X16150Y352700D02*
X3175Y339725D01*
X21475Y352700D02*
X86475Y352700D01*
X86475Y279675D02*
X21475Y279675D01*
X12700Y279675D01*
X3450Y279675D01*
X3175Y279400D01*
X244475Y209550D02*
X266700Y231775D01*
X266700Y638175D01*
X542925Y358775D02*
X508000Y323850D01*
X542925Y358775D02*
X542925Y492125D01*
X159150Y292100D02*
X159150Y276225D01*
X159150Y280025D02*
X86475Y352700D01*
X159150Y280025D02*
X159150Y276225D01*
X12700Y279675D02*
X3175Y289200D01*
X12700Y279675D02*
X3175Y270150D01*
X57150Y911225D02*
X57150Y955675D01*
X79375Y977900D01*
X898340Y889000D02*
X927100Y889000D01*
X933450Y882650D01*
X933450Y806450D01*
X914400Y787400D01*
X901700Y787400D01*
X864870Y787400D01*
X863600Y788670D01*
X1088840Y889000D02*
X1107890Y889000D01*
X1123950Y872940D01*
X1123950Y806450D01*
X1104900Y787400D01*
X1092200Y787400D01*
X1090930Y788670D02*
X1054100Y788670D01*
X1090930Y788670D02*
X1092200Y787400D01*
X1244600Y788670D02*
X1281430Y788670D01*
X1282700Y787400D01*
X1279340Y889000D02*
X1298390Y889000D01*
X1314450Y872940D01*
X1314450Y806450D01*
X1296670Y788670D01*
X1281430Y788670D01*
X898340Y889000D02*
X898340Y898340D01*
X901700Y901700D01*
X990600Y901700D01*
X996696Y895604D01*
X996696Y846074D02*
X1054100Y788670D01*
X996696Y846074D02*
X996696Y895604D01*
X1088840Y898340D02*
X1088840Y889000D01*
X1088840Y898340D02*
X1092200Y901700D01*
X1180846Y901700D01*
X1187196Y895350D01*
X1187196Y846074D01*
X1244600Y788670D01*
X863600Y788670D02*
X838200Y763270D01*
X838200Y479425D01*
D25*
X82550Y533400D02*
X82550Y612775D01*
D26*
X-14605Y220980D02*
X15875Y190500D01*
X-14605Y220980D02*
X-14605Y512445D01*
X15875Y190500D02*
X539750Y190500D01*
X571500Y222250D01*
X571500Y530225D01*
X590550Y549275D01*
X622300Y549275D01*
X82550Y533400D02*
X6350Y533400D01*
X-14605Y512445D01*
X622300Y549275D02*
X711200Y460375D01*
X819150Y460375D01*
X838200Y479425D01*
D25*
X192750Y674925D02*
X158750Y674925D01*
X158750Y730250D01*
X142875Y746125D01*
X57150Y746125D01*
X57150Y676275D01*
X69850Y663575D01*
X82550Y663575D01*
X192750Y674925D02*
X209150Y658525D01*
X209150Y555625D01*
X209150Y415925D01*
X209150Y276225D01*
D28*
X990600Y647700D03*
X1181100Y647700D03*
X1371600Y647700D03*
D26*
X990600Y647700D02*
X990600Y498475D01*
X981075Y488950D01*
X949325Y488950D01*
X939800Y479425D01*
X939800Y457200D01*
X1181100Y498475D02*
X1181100Y647700D01*
X1181100Y498475D02*
X1171575Y488950D01*
X1139825Y488950D01*
X1130300Y479425D01*
X1130300Y457200D01*
X1371600Y498475D02*
X1371600Y647700D01*
X1371600Y498475D02*
X1362075Y488950D01*
X1330325Y488950D01*
X1320800Y479425D01*
X1320800Y457200D01*
X215900Y733425D02*
X215900Y936625D01*
X192750Y710275D02*
X192750Y674925D01*
X192750Y710275D02*
X215900Y733425D01*
X1371600Y647700D02*
X1381125Y657225D01*
X1368425Y774700D02*
X1346200Y774700D01*
X1343025Y777875D01*
X1343025Y793750D02*
X1349375Y800100D01*
X1374775Y800100D01*
X1381125Y806450D01*
X1381125Y822325D01*
X1377950Y825500D01*
X1343025Y825500D01*
X1327150Y841375D01*
X1381125Y762000D02*
X1381125Y657225D01*
X1381125Y762000D02*
X1368425Y774700D01*
X1343025Y777875D02*
X1343025Y793750D01*
X1047750Y939800D02*
X1022350Y965200D01*
X1047750Y939800D02*
X1200150Y939800D01*
X1235075Y904875D01*
X1304925Y904875D01*
X1327150Y882650D01*
X1327150Y841375D01*
X244475Y965200D02*
X215900Y936625D01*
X244475Y965200D02*
X1022350Y965200D01*
D25*
X85725Y420370D02*
X82550Y420370D01*
X82550Y482600D01*
D27*
X44450Y422275D03*
D25*
X80645Y422275D01*
X82550Y420370D01*
D26*
X1238250Y812800D02*
X1282700Y812800D01*
X1238250Y812800D02*
X1200150Y850900D01*
X1200150Y901700D01*
X1187450Y914400D01*
X1035050Y914400D01*
X1009650Y939800D01*
X869950Y939800D01*
X844550Y914400D01*
X749300Y914400D01*
X723900Y889000D01*
X723900Y781050D01*
X742950Y762000D01*
D29*
X793750Y762000D01*
D26*
X800100Y755650D01*
X800100Y692150D01*
X793750Y685800D01*
D29*
X749300Y685800D01*
X736600Y673100D01*
D26*
X736600Y596900D01*
X751840Y581660D02*
X774700Y581660D01*
X751840Y581660D02*
X736600Y596900D01*
X1231900Y838200D02*
X1282700Y838200D01*
X1231900Y838200D02*
X1212850Y857250D01*
X1212850Y908050D01*
X1193800Y927100D01*
X1041400Y927100D01*
X1015746Y952754D02*
X863854Y952754D01*
X838200Y927100D01*
X742950Y927100D01*
X711200Y895350D01*
X711200Y774700D01*
X736600Y749300D01*
X774700Y749300D01*
X1015746Y952754D02*
X1041400Y927100D01*
X1362260Y889000D02*
X1362260Y841560D01*
X1358900Y838200D01*
X1390650Y838200D01*
X1397000Y831850D01*
X1397000Y788670D01*
X1371600Y787400D02*
X1358900Y787400D01*
X1397000Y762000D02*
X1397000Y760730D01*
X1397000Y762000D02*
X1371600Y787400D01*
X1384300Y457200D02*
X1346200Y457200D01*
X1384300Y457200D02*
X1397000Y469900D01*
X1397000Y760730D01*
X1390650Y374650D02*
X1384300Y368300D01*
X1390650Y374650D02*
X1397000Y381000D01*
X1384300Y368300D02*
X1333500Y368300D01*
X1320800Y381000D01*
X1320800Y393700D01*
X1397000Y381000D02*
X1397000Y444500D01*
X1397000Y457200D01*
X1397000Y469900D01*
X1384300Y457200D02*
X1397000Y444500D01*
X1397000Y457200D02*
X1384300Y457200D01*
D28*
X1390650Y374650D03*
X1384300Y231775D03*
D26*
X1384300Y301625D02*
X1362075Y323850D01*
X1384300Y301625D02*
X1384300Y231775D01*
X1362075Y323850D02*
X723900Y323850D01*
X666750Y457200D02*
X596900Y527050D01*
X666750Y381000D02*
X723900Y323850D01*
X666750Y381000D02*
X666750Y457200D01*
X1346200Y812800D02*
X1358900Y812800D01*
X1346200Y812800D02*
X1323975Y790575D01*
X1323975Y765175D01*
X1301750Y742950D01*
X1276350Y742950D01*
X1263650Y730250D01*
X1263650Y711200D01*
X1276350Y698500D01*
X1282700Y698500D01*
X1346200Y762000D02*
X1358900Y762000D01*
X1346200Y762000D02*
X1308100Y723900D01*
X1282700Y723900D01*
X1012190Y380365D02*
X1006475Y374650D01*
X1000125Y368300D01*
X952500Y368300D01*
X939800Y381000D01*
X939800Y393700D01*
X1000125Y457200D02*
X1012190Y469265D01*
X1012190Y756920D02*
X1016000Y760730D01*
X1012190Y756920D02*
X1012190Y469265D01*
X990600Y787400D02*
X977900Y787400D01*
X1016000Y762000D02*
X1016000Y760730D01*
X1016000Y762000D02*
X990600Y787400D01*
X1000125Y457200D02*
X965200Y457200D01*
X1012190Y445135D02*
X1012190Y380365D01*
X1012190Y445135D02*
X1012190Y457200D01*
X1012190Y469265D01*
X1000125Y457200D02*
X1012190Y445135D01*
X1012190Y457200D02*
X1000125Y457200D01*
D28*
X1006475Y374650D03*
X1000125Y238125D03*
D26*
X749300Y238125D01*
X612775Y374650D02*
X596900Y374650D01*
X612775Y374650D02*
X749300Y238125D01*
X965200Y812800D02*
X977900Y812800D01*
X965200Y812800D02*
X958850Y806450D01*
X958850Y774700D01*
X927100Y742950D01*
X895350Y742950D02*
X882650Y730250D01*
X882650Y711200D01*
X895350Y698500D01*
X901700Y698500D01*
X895350Y742950D02*
X927100Y742950D01*
X927100Y723900D02*
X965200Y762000D01*
X977900Y762000D01*
X927100Y723900D02*
X901700Y723900D01*
X1168400Y787400D02*
X1181100Y787400D01*
X1206500Y762000D02*
X1206500Y760730D01*
X1206500Y762000D02*
X1181100Y787400D01*
X1190625Y460375D02*
X1158875Y460375D01*
X1155700Y457200D01*
X1190625Y460375D02*
X1203325Y473075D01*
X1203325Y757555D01*
X1206500Y760730D01*
X1203325Y381000D02*
X1196975Y374650D01*
X1190625Y368300D01*
X1143000Y368300D01*
X1130300Y381000D01*
X1130300Y393700D01*
X1203325Y381000D02*
X1203325Y447675D01*
X1203325Y460375D01*
X1203325Y473075D01*
X1190625Y460375D02*
X1203325Y447675D01*
X1203325Y460375D02*
X1190625Y460375D01*
D28*
X1196975Y374650D03*
X1190625Y231775D03*
D26*
X1190625Y263525D01*
X1168400Y285750D01*
X638175Y409575D02*
X596900Y450850D01*
X638175Y409575D02*
X638175Y377825D01*
X730250Y285750D01*
X1168400Y285750D01*
X1168400Y812800D02*
X1155700Y812800D01*
X1149350Y806450D01*
X1149350Y774700D01*
X1118362Y743712D02*
X1080262Y743712D01*
X1118362Y743712D02*
X1149350Y774700D01*
X1080262Y743712D02*
X1066800Y730250D01*
X1066800Y711200D01*
X1079500Y698500D01*
X1092200Y698500D01*
X1155700Y762000D02*
X1168400Y762000D01*
X1155700Y762000D02*
X1117600Y723900D01*
X1092200Y723900D01*
X1047750Y838200D02*
X1022350Y863600D01*
X1022350Y908050D02*
X1003300Y927100D01*
X876300Y927100D01*
X755650Y901700D02*
X736600Y882650D01*
X736600Y787400D01*
X749300Y774700D01*
X774700Y774700D01*
X1047750Y838200D02*
X1092200Y838200D01*
X1022350Y863600D02*
X1022350Y908050D01*
X850900Y901700D02*
X755650Y901700D01*
X850900Y901700D02*
X876300Y927100D01*
X1054100Y812800D02*
X1092200Y812800D01*
X1054100Y812800D02*
X1009650Y857250D01*
X1009650Y901700D01*
X996950Y914400D01*
X882650Y914400D01*
X869950Y901700D01*
X869950Y882650D01*
X812800Y793750D02*
X812800Y685800D01*
D29*
X800100Y673100D02*
X762000Y673100D01*
X749300Y660400D01*
D26*
X749300Y622300D01*
X764540Y607060D01*
X774700Y607060D01*
X800100Y673100D02*
X812800Y685800D01*
X844550Y825500D02*
X914400Y825500D01*
X920750Y831850D01*
X920750Y863600D01*
X914400Y869950D01*
X844550Y825500D02*
X812800Y793750D01*
X882650Y869950D02*
X869950Y882650D01*
X882650Y869950D02*
X914400Y869950D01*
X793750Y800100D02*
X774700Y800100D01*
X793750Y800100D02*
X831850Y838200D01*
X901700Y838200D01*
X901700Y812800D02*
X857250Y812800D01*
X825500Y781050D01*
X825500Y647700D02*
X810260Y632460D01*
X774700Y632460D01*
X825500Y647700D02*
X825500Y781050D01*
X774700Y698500D02*
X733425Y698500D01*
X723900Y688975D01*
X723900Y561975D01*
D28*
X723900Y561975D03*
X723900Y482600D03*
D26*
X492125Y527050D02*
X492125Y565150D01*
X631825Y565150D02*
X714375Y482600D01*
X723900Y482600D01*
X631825Y565150D02*
X492125Y565150D01*
X492125Y527050D02*
X520700Y527050D01*
X415925Y527050D02*
X404778Y527050D01*
X394843Y517115D01*
X394843Y463960D01*
X407953Y450850D02*
X415925Y450850D01*
X407953Y450850D02*
X394843Y463960D01*
X404616Y374650D02*
X415925Y374650D01*
X404616Y374650D02*
X394843Y384423D01*
X404778Y450850D02*
X415925Y450850D01*
X404778Y450850D02*
X394843Y440915D01*
X394843Y384423D01*
X406400Y527050D02*
X415925Y527050D01*
X406400Y527050D02*
X393700Y539750D01*
X393700Y606425D01*
X403225Y615950D01*
X723900Y723900D02*
X774700Y723900D01*
X685800Y615950D02*
X403225Y615950D01*
X701675Y701675D02*
X723900Y723900D01*
X701675Y701675D02*
X701675Y631825D01*
X685800Y615950D01*
X292100Y800100D02*
X269875Y800100D01*
X355600Y377825D02*
X377825Y355600D01*
X434975Y355600D01*
X450850Y371475D01*
X450850Y479425D02*
X463550Y492125D01*
X488950Y492125D01*
X492125Y488950D01*
X269875Y800100D02*
X260350Y809625D01*
X260350Y892175D01*
X355600Y825500D02*
X355600Y377825D01*
X450850Y371475D02*
X450850Y479425D01*
X492125Y488950D02*
X492125Y450850D01*
X520700Y450850D01*
X312930Y899920D02*
X307975Y904875D01*
X312930Y899920D02*
X312930Y889286D01*
X322263Y879954D01*
X322263Y858838D01*
X273050Y904875D02*
X260350Y892175D01*
X273050Y904875D02*
X307975Y904875D01*
X322263Y858838D02*
X355600Y825500D01*
X323850Y825754D02*
X292354Y825754D01*
X292100Y825500D01*
X339725Y371475D02*
X371475Y339725D01*
X473075Y339725D01*
X492125Y374650D02*
X492125Y412750D01*
X492125Y374650D02*
X520700Y374650D01*
X492125Y358775D02*
X473075Y339725D01*
X492125Y358775D02*
X492125Y374650D01*
X339725Y809879D02*
X323850Y825754D01*
X339725Y809879D02*
X339725Y371475D01*
X292100Y749300D02*
X282575Y749300D01*
X250825Y717550D02*
X250825Y247650D01*
X228325Y225150D01*
X96000Y225150D01*
X86475Y234675D01*
X250825Y717550D02*
X282575Y749300D01*
X86475Y234675D02*
X21475Y234675D01*
X254000Y774700D02*
X292100Y774700D01*
X254000Y774700D02*
X234569Y755269D01*
X234569Y259969D01*
X219075Y244475D01*
X149225Y244475D01*
X86475Y307225D01*
X86475Y307700D01*
X21475Y307700D01*
X1358900Y679450D02*
X1358900Y698500D01*
X1358900Y679450D02*
X1346200Y666750D01*
X1263650Y666750D01*
X1250950Y654050D01*
X1250950Y476250D01*
X1270000Y457200D01*
X1295400Y457200D01*
X1168400Y679450D02*
X1168400Y698500D01*
X1168400Y679450D02*
X1155700Y666750D01*
X1073150Y666750D02*
X1060450Y654050D01*
X1060450Y476250D01*
X1079500Y457200D01*
X1104900Y457200D01*
X1073150Y666750D02*
X1155700Y666750D01*
X1168400Y723900D02*
X1143000Y723900D01*
X1130300Y711200D01*
X1130300Y692150D01*
X1116838Y678688D02*
X1066038Y678688D01*
X1116838Y678688D02*
X1130300Y692150D01*
X1066038Y678688D02*
X1044575Y657225D01*
X1044575Y454025D01*
X1066800Y431800D01*
X1143000Y431800D01*
X1155700Y419100D01*
X1155700Y393700D01*
X977900Y685800D02*
X977900Y698500D01*
X977900Y685800D02*
X958850Y666750D01*
X882650Y666750D01*
X876300Y660400D01*
X876300Y469900D01*
X889000Y457200D01*
X914400Y457200D01*
X952500Y723900D02*
X977900Y723900D01*
X952500Y723900D02*
X939800Y711200D01*
X939800Y685800D01*
X932688Y678688D02*
X875538Y678688D01*
X932688Y678688D02*
X939800Y685800D01*
X875538Y678688D02*
X863600Y666750D01*
X863600Y444500D01*
X876300Y431800D01*
X952500Y431800D01*
X965200Y419100D01*
X965200Y393700D01*
X1333500Y723900D02*
X1358900Y723900D01*
X1333500Y723900D02*
X1320800Y711200D01*
X1320800Y692150D01*
X1307338Y678688D02*
X1250188Y678688D01*
X1307338Y678688D02*
X1320800Y692150D01*
X1250188Y678688D02*
X1235075Y663575D01*
X1235075Y454025D01*
X1257300Y431800D01*
X1333500Y431800D01*
X1346200Y419100D01*
X1346200Y393700D01*
D25*
X158750Y809625D02*
X158750Y911225D01*
X158750Y809625D02*
X192750Y809625D01*
D26*
X1171760Y863600D02*
X1171760Y889000D01*
X1171760Y863600D02*
X1165410Y857250D01*
X1165410Y841190D02*
X1168400Y838200D01*
X1165410Y841190D02*
X1165410Y857250D01*
X1168400Y838200D02*
X1206500Y800100D01*
X1206500Y788670D01*
X981260Y863600D02*
X981260Y889000D01*
X981260Y863600D02*
X974910Y857250D01*
X974910Y841190D02*
X977900Y838200D01*
X974910Y841190D02*
X974910Y857250D01*
X977900Y838200D02*
X1016000Y800100D01*
X1016000Y788670D01*
M02*
