G04 EAGLE Gerber RS-274X export*
G75*
%MOMM*%
%FSLAX34Y34*%
%LPD*%
%INSoldermask Bottom*%
%IPPOS*%
%AMOC8*
5,1,8,0,0,1.08239X$1,22.5*%
G01*
%ADD10C,1.473200*%
%ADD11C,1.727200*%
%ADD12C,1.546600*%
%ADD13C,3.403200*%
%ADD14C,2.203200*%
%ADD15R,1.441200X1.441200*%
%ADD16C,1.441200*%
%ADD17C,2.082800*%
%ADD18C,1.701200*%
%ADD19R,1.701200X1.701200*%
%ADD20C,1.917700*%
%ADD21P,3.061215X8X292.500000*%
%ADD22R,5.283200X10.363200*%
%ADD23C,2.184400*%
%ADD24C,2.133600*%
%ADD25R,2.133600X2.133600*%
%ADD26C,1.981200*%
%ADD27C,1.503200*%

G36*
X1017518Y778736D02*
X1017518Y778736D01*
X1017561Y778747D01*
X1017627Y778753D01*
X1019257Y779165D01*
X1019297Y779183D01*
X1019361Y779201D01*
X1020894Y779889D01*
X1020931Y779914D01*
X1020991Y779943D01*
X1022381Y780887D01*
X1022413Y780918D01*
X1022467Y780956D01*
X1023673Y782127D01*
X1023699Y782164D01*
X1023745Y782211D01*
X1024729Y783573D01*
X1024748Y783614D01*
X1024785Y783668D01*
X1025518Y785181D01*
X1025530Y785224D01*
X1025557Y785284D01*
X1026015Y786901D01*
X1026020Y786946D01*
X1026036Y787010D01*
X1026207Y788682D01*
X1026203Y788730D01*
X1026207Y788809D01*
X1026041Y790481D01*
X1026029Y790524D01*
X1026020Y790590D01*
X1025566Y792207D01*
X1025547Y792248D01*
X1025527Y792311D01*
X1024799Y793825D01*
X1024773Y793861D01*
X1024743Y793920D01*
X1023762Y795285D01*
X1023730Y795316D01*
X1023690Y795369D01*
X1022488Y796543D01*
X1022451Y796568D01*
X1022403Y796613D01*
X1021015Y797560D01*
X1020974Y797578D01*
X1020918Y797614D01*
X1019387Y798306D01*
X1019344Y798317D01*
X1019283Y798343D01*
X1017654Y798758D01*
X1017610Y798761D01*
X1017545Y798776D01*
X1015870Y798902D01*
X1015823Y798898D01*
X1015751Y798900D01*
X1013916Y798695D01*
X1013869Y798681D01*
X1013794Y798669D01*
X1012033Y798109D01*
X1011991Y798086D01*
X1011919Y798060D01*
X1010302Y797167D01*
X1010264Y797137D01*
X1010199Y797097D01*
X1008787Y795906D01*
X1008756Y795869D01*
X1008700Y795817D01*
X1007547Y794373D01*
X1007525Y794331D01*
X1007480Y794269D01*
X1006631Y792628D01*
X1006617Y792582D01*
X1006585Y792513D01*
X1006072Y790738D01*
X1006067Y790690D01*
X1006050Y790615D01*
X1005893Y788775D01*
X1005897Y788731D01*
X1005893Y788666D01*
X1006053Y786835D01*
X1006066Y786789D01*
X1006074Y786728D01*
X1006074Y786726D01*
X1006076Y786713D01*
X1006590Y784949D01*
X1006611Y784905D01*
X1006636Y784833D01*
X1007485Y783203D01*
X1007514Y783165D01*
X1007553Y783099D01*
X1008703Y781666D01*
X1008739Y781634D01*
X1008790Y781577D01*
X1010198Y780396D01*
X1010239Y780372D01*
X1010300Y780326D01*
X1011912Y779442D01*
X1011957Y779427D01*
X1012026Y779393D01*
X1013779Y778841D01*
X1013826Y778835D01*
X1013900Y778815D01*
X1015727Y778616D01*
X1015773Y778619D01*
X1015842Y778613D01*
X1017518Y778736D01*
G37*
G36*
X1055618Y778736D02*
X1055618Y778736D01*
X1055661Y778747D01*
X1055727Y778753D01*
X1057357Y779165D01*
X1057397Y779183D01*
X1057461Y779201D01*
X1058994Y779889D01*
X1059031Y779914D01*
X1059091Y779943D01*
X1060481Y780887D01*
X1060513Y780918D01*
X1060567Y780956D01*
X1061773Y782127D01*
X1061799Y782164D01*
X1061845Y782211D01*
X1062829Y783573D01*
X1062848Y783614D01*
X1062885Y783668D01*
X1063618Y785181D01*
X1063630Y785224D01*
X1063657Y785284D01*
X1064115Y786901D01*
X1064120Y786946D01*
X1064136Y787010D01*
X1064307Y788682D01*
X1064303Y788730D01*
X1064307Y788809D01*
X1064141Y790481D01*
X1064129Y790524D01*
X1064120Y790590D01*
X1063666Y792207D01*
X1063647Y792248D01*
X1063627Y792311D01*
X1062899Y793825D01*
X1062873Y793861D01*
X1062843Y793920D01*
X1061862Y795285D01*
X1061830Y795316D01*
X1061790Y795369D01*
X1060588Y796543D01*
X1060551Y796568D01*
X1060503Y796613D01*
X1059115Y797560D01*
X1059074Y797578D01*
X1059018Y797614D01*
X1057487Y798306D01*
X1057444Y798317D01*
X1057383Y798343D01*
X1055754Y798758D01*
X1055710Y798761D01*
X1055645Y798776D01*
X1053970Y798902D01*
X1053923Y798898D01*
X1053851Y798900D01*
X1052016Y798695D01*
X1051969Y798681D01*
X1051894Y798669D01*
X1050133Y798109D01*
X1050091Y798086D01*
X1050019Y798060D01*
X1048402Y797167D01*
X1048364Y797137D01*
X1048299Y797097D01*
X1046887Y795906D01*
X1046856Y795869D01*
X1046800Y795817D01*
X1045647Y794373D01*
X1045625Y794331D01*
X1045580Y794269D01*
X1044731Y792628D01*
X1044717Y792582D01*
X1044685Y792513D01*
X1044172Y790738D01*
X1044167Y790690D01*
X1044150Y790615D01*
X1043993Y788775D01*
X1043997Y788731D01*
X1043993Y788666D01*
X1044153Y786835D01*
X1044166Y786789D01*
X1044174Y786728D01*
X1044174Y786726D01*
X1044176Y786713D01*
X1044690Y784949D01*
X1044711Y784905D01*
X1044736Y784833D01*
X1045585Y783203D01*
X1045614Y783165D01*
X1045653Y783099D01*
X1046803Y781666D01*
X1046839Y781634D01*
X1046890Y781577D01*
X1048298Y780396D01*
X1048339Y780372D01*
X1048400Y780326D01*
X1050012Y779442D01*
X1050057Y779427D01*
X1050126Y779393D01*
X1051879Y778841D01*
X1051926Y778835D01*
X1052000Y778815D01*
X1053827Y778616D01*
X1053873Y778619D01*
X1053942Y778613D01*
X1055618Y778736D01*
G37*
G36*
X865118Y778736D02*
X865118Y778736D01*
X865161Y778747D01*
X865227Y778753D01*
X866857Y779165D01*
X866897Y779183D01*
X866961Y779201D01*
X868494Y779889D01*
X868531Y779914D01*
X868591Y779943D01*
X869981Y780887D01*
X870013Y780918D01*
X870067Y780956D01*
X871273Y782127D01*
X871299Y782164D01*
X871345Y782211D01*
X872329Y783573D01*
X872348Y783614D01*
X872385Y783668D01*
X873118Y785181D01*
X873130Y785224D01*
X873157Y785284D01*
X873615Y786901D01*
X873620Y786946D01*
X873636Y787010D01*
X873807Y788682D01*
X873803Y788730D01*
X873807Y788809D01*
X873641Y790481D01*
X873629Y790524D01*
X873620Y790590D01*
X873166Y792207D01*
X873147Y792248D01*
X873127Y792311D01*
X872399Y793825D01*
X872373Y793861D01*
X872343Y793920D01*
X871362Y795285D01*
X871330Y795316D01*
X871290Y795369D01*
X870088Y796543D01*
X870051Y796568D01*
X870003Y796613D01*
X868615Y797560D01*
X868574Y797578D01*
X868518Y797614D01*
X866987Y798306D01*
X866944Y798317D01*
X866883Y798343D01*
X865254Y798758D01*
X865210Y798761D01*
X865145Y798776D01*
X863470Y798902D01*
X863423Y798898D01*
X863351Y798900D01*
X861516Y798695D01*
X861469Y798681D01*
X861394Y798669D01*
X859633Y798109D01*
X859591Y798086D01*
X859519Y798060D01*
X857902Y797167D01*
X857864Y797137D01*
X857799Y797097D01*
X856387Y795906D01*
X856356Y795869D01*
X856300Y795817D01*
X855147Y794373D01*
X855125Y794331D01*
X855080Y794269D01*
X854231Y792628D01*
X854217Y792582D01*
X854185Y792513D01*
X853672Y790738D01*
X853667Y790690D01*
X853650Y790615D01*
X853493Y788775D01*
X853497Y788731D01*
X853493Y788666D01*
X853653Y786835D01*
X853666Y786789D01*
X853674Y786728D01*
X853674Y786726D01*
X853676Y786713D01*
X854190Y784949D01*
X854211Y784905D01*
X854236Y784833D01*
X855085Y783203D01*
X855114Y783165D01*
X855153Y783099D01*
X856303Y781666D01*
X856339Y781634D01*
X856390Y781577D01*
X857798Y780396D01*
X857839Y780372D01*
X857900Y780326D01*
X859512Y779442D01*
X859557Y779427D01*
X859626Y779393D01*
X861379Y778841D01*
X861426Y778835D01*
X861500Y778815D01*
X863327Y778616D01*
X863373Y778619D01*
X863442Y778613D01*
X865118Y778736D01*
G37*
G36*
X1398518Y778736D02*
X1398518Y778736D01*
X1398561Y778747D01*
X1398627Y778753D01*
X1400257Y779165D01*
X1400297Y779183D01*
X1400361Y779201D01*
X1401894Y779889D01*
X1401931Y779914D01*
X1401991Y779943D01*
X1403381Y780887D01*
X1403413Y780918D01*
X1403467Y780956D01*
X1404673Y782127D01*
X1404699Y782164D01*
X1404745Y782211D01*
X1405729Y783573D01*
X1405748Y783614D01*
X1405785Y783668D01*
X1406518Y785181D01*
X1406530Y785224D01*
X1406557Y785284D01*
X1407015Y786901D01*
X1407020Y786946D01*
X1407036Y787010D01*
X1407207Y788682D01*
X1407203Y788730D01*
X1407207Y788809D01*
X1407041Y790481D01*
X1407029Y790524D01*
X1407020Y790590D01*
X1406566Y792207D01*
X1406547Y792248D01*
X1406527Y792311D01*
X1405799Y793825D01*
X1405773Y793861D01*
X1405743Y793920D01*
X1404762Y795285D01*
X1404730Y795316D01*
X1404690Y795369D01*
X1403488Y796543D01*
X1403451Y796568D01*
X1403403Y796613D01*
X1402015Y797560D01*
X1401974Y797578D01*
X1401918Y797614D01*
X1400387Y798306D01*
X1400344Y798317D01*
X1400283Y798343D01*
X1398654Y798758D01*
X1398610Y798761D01*
X1398545Y798776D01*
X1396870Y798902D01*
X1396823Y798898D01*
X1396751Y798900D01*
X1394916Y798695D01*
X1394869Y798681D01*
X1394794Y798669D01*
X1393033Y798109D01*
X1392991Y798086D01*
X1392919Y798060D01*
X1391302Y797167D01*
X1391264Y797137D01*
X1391199Y797097D01*
X1389787Y795906D01*
X1389756Y795869D01*
X1389700Y795817D01*
X1388547Y794373D01*
X1388525Y794331D01*
X1388480Y794269D01*
X1387631Y792628D01*
X1387617Y792582D01*
X1387585Y792513D01*
X1387072Y790738D01*
X1387067Y790690D01*
X1387050Y790615D01*
X1386893Y788775D01*
X1386897Y788731D01*
X1386893Y788666D01*
X1387053Y786835D01*
X1387066Y786789D01*
X1387074Y786728D01*
X1387074Y786726D01*
X1387076Y786713D01*
X1387590Y784949D01*
X1387611Y784905D01*
X1387636Y784833D01*
X1388485Y783203D01*
X1388514Y783165D01*
X1388553Y783099D01*
X1389703Y781666D01*
X1389739Y781634D01*
X1389790Y781577D01*
X1391198Y780396D01*
X1391239Y780372D01*
X1391300Y780326D01*
X1392912Y779442D01*
X1392957Y779427D01*
X1393026Y779393D01*
X1394779Y778841D01*
X1394826Y778835D01*
X1394900Y778815D01*
X1396727Y778616D01*
X1396773Y778619D01*
X1396842Y778613D01*
X1398518Y778736D01*
G37*
G36*
X1208018Y778736D02*
X1208018Y778736D01*
X1208061Y778747D01*
X1208127Y778753D01*
X1209757Y779165D01*
X1209797Y779183D01*
X1209861Y779201D01*
X1211394Y779889D01*
X1211431Y779914D01*
X1211491Y779943D01*
X1212881Y780887D01*
X1212913Y780918D01*
X1212967Y780956D01*
X1214173Y782127D01*
X1214199Y782164D01*
X1214245Y782211D01*
X1215229Y783573D01*
X1215248Y783614D01*
X1215285Y783668D01*
X1216018Y785181D01*
X1216030Y785224D01*
X1216057Y785284D01*
X1216515Y786901D01*
X1216520Y786946D01*
X1216536Y787010D01*
X1216707Y788682D01*
X1216703Y788730D01*
X1216707Y788809D01*
X1216541Y790481D01*
X1216529Y790524D01*
X1216520Y790590D01*
X1216066Y792207D01*
X1216047Y792248D01*
X1216027Y792311D01*
X1215299Y793825D01*
X1215273Y793861D01*
X1215243Y793920D01*
X1214262Y795285D01*
X1214230Y795316D01*
X1214190Y795369D01*
X1212988Y796543D01*
X1212951Y796568D01*
X1212903Y796613D01*
X1211515Y797560D01*
X1211474Y797578D01*
X1211418Y797614D01*
X1209887Y798306D01*
X1209844Y798317D01*
X1209783Y798343D01*
X1208154Y798758D01*
X1208110Y798761D01*
X1208045Y798776D01*
X1206370Y798902D01*
X1206323Y798898D01*
X1206251Y798900D01*
X1204416Y798695D01*
X1204369Y798681D01*
X1204294Y798669D01*
X1202533Y798109D01*
X1202491Y798086D01*
X1202419Y798060D01*
X1200802Y797167D01*
X1200764Y797137D01*
X1200699Y797097D01*
X1199287Y795906D01*
X1199256Y795869D01*
X1199200Y795817D01*
X1198047Y794373D01*
X1198025Y794331D01*
X1197980Y794269D01*
X1197131Y792628D01*
X1197117Y792582D01*
X1197085Y792513D01*
X1196572Y790738D01*
X1196567Y790690D01*
X1196550Y790615D01*
X1196393Y788775D01*
X1196397Y788731D01*
X1196393Y788666D01*
X1196553Y786835D01*
X1196566Y786789D01*
X1196574Y786728D01*
X1196574Y786726D01*
X1196576Y786713D01*
X1197090Y784949D01*
X1197111Y784905D01*
X1197136Y784833D01*
X1197985Y783203D01*
X1198014Y783165D01*
X1198053Y783099D01*
X1199203Y781666D01*
X1199239Y781634D01*
X1199290Y781577D01*
X1200698Y780396D01*
X1200739Y780372D01*
X1200800Y780326D01*
X1202412Y779442D01*
X1202457Y779427D01*
X1202526Y779393D01*
X1204279Y778841D01*
X1204326Y778835D01*
X1204400Y778815D01*
X1206227Y778616D01*
X1206273Y778619D01*
X1206342Y778613D01*
X1208018Y778736D01*
G37*
G36*
X1246118Y778736D02*
X1246118Y778736D01*
X1246161Y778747D01*
X1246227Y778753D01*
X1247857Y779165D01*
X1247897Y779183D01*
X1247961Y779201D01*
X1249494Y779889D01*
X1249531Y779914D01*
X1249591Y779943D01*
X1250981Y780887D01*
X1251013Y780918D01*
X1251067Y780956D01*
X1252273Y782127D01*
X1252299Y782164D01*
X1252345Y782211D01*
X1253329Y783573D01*
X1253348Y783614D01*
X1253385Y783668D01*
X1254118Y785181D01*
X1254130Y785224D01*
X1254157Y785284D01*
X1254615Y786901D01*
X1254620Y786946D01*
X1254636Y787010D01*
X1254807Y788682D01*
X1254803Y788730D01*
X1254807Y788809D01*
X1254641Y790481D01*
X1254629Y790524D01*
X1254620Y790590D01*
X1254166Y792207D01*
X1254147Y792248D01*
X1254127Y792311D01*
X1253399Y793825D01*
X1253373Y793861D01*
X1253343Y793920D01*
X1252362Y795285D01*
X1252330Y795316D01*
X1252290Y795369D01*
X1251088Y796543D01*
X1251051Y796568D01*
X1251003Y796613D01*
X1249615Y797560D01*
X1249574Y797578D01*
X1249518Y797614D01*
X1247987Y798306D01*
X1247944Y798317D01*
X1247883Y798343D01*
X1246254Y798758D01*
X1246210Y798761D01*
X1246145Y798776D01*
X1244470Y798902D01*
X1244423Y798898D01*
X1244351Y798900D01*
X1242516Y798695D01*
X1242469Y798681D01*
X1242394Y798669D01*
X1240633Y798109D01*
X1240591Y798086D01*
X1240519Y798060D01*
X1238902Y797167D01*
X1238864Y797137D01*
X1238799Y797097D01*
X1237387Y795906D01*
X1237356Y795869D01*
X1237300Y795817D01*
X1236147Y794373D01*
X1236125Y794331D01*
X1236080Y794269D01*
X1235231Y792628D01*
X1235217Y792582D01*
X1235185Y792513D01*
X1234672Y790738D01*
X1234667Y790690D01*
X1234650Y790615D01*
X1234493Y788775D01*
X1234497Y788731D01*
X1234493Y788666D01*
X1234653Y786835D01*
X1234666Y786789D01*
X1234674Y786728D01*
X1234674Y786726D01*
X1234676Y786713D01*
X1235190Y784949D01*
X1235211Y784905D01*
X1235236Y784833D01*
X1236085Y783203D01*
X1236114Y783165D01*
X1236153Y783099D01*
X1237303Y781666D01*
X1237339Y781634D01*
X1237390Y781577D01*
X1238798Y780396D01*
X1238839Y780372D01*
X1238900Y780326D01*
X1240512Y779442D01*
X1240557Y779427D01*
X1240626Y779393D01*
X1242379Y778841D01*
X1242426Y778835D01*
X1242500Y778815D01*
X1244327Y778616D01*
X1244373Y778619D01*
X1244442Y778613D01*
X1246118Y778736D01*
G37*
G36*
X1017518Y750745D02*
X1017518Y750745D01*
X1017561Y750756D01*
X1017627Y750762D01*
X1019257Y751174D01*
X1019297Y751192D01*
X1019361Y751210D01*
X1020894Y751898D01*
X1020931Y751923D01*
X1020991Y751952D01*
X1022381Y752896D01*
X1022413Y752927D01*
X1022467Y752965D01*
X1023673Y754136D01*
X1023699Y754173D01*
X1023745Y754220D01*
X1024729Y755582D01*
X1024748Y755623D01*
X1024785Y755677D01*
X1025518Y757190D01*
X1025530Y757233D01*
X1025557Y757293D01*
X1026015Y758910D01*
X1026020Y758955D01*
X1026036Y759019D01*
X1026207Y760691D01*
X1026203Y760739D01*
X1026207Y760818D01*
X1026041Y762490D01*
X1026029Y762533D01*
X1026020Y762599D01*
X1025566Y764216D01*
X1025547Y764257D01*
X1025527Y764320D01*
X1024799Y765834D01*
X1024773Y765870D01*
X1024743Y765929D01*
X1023762Y767294D01*
X1023730Y767325D01*
X1023690Y767378D01*
X1022488Y768552D01*
X1022451Y768577D01*
X1022403Y768622D01*
X1021015Y769569D01*
X1020974Y769587D01*
X1020918Y769623D01*
X1019387Y770315D01*
X1019344Y770326D01*
X1019283Y770352D01*
X1017654Y770767D01*
X1017610Y770770D01*
X1017545Y770785D01*
X1015870Y770911D01*
X1015823Y770907D01*
X1015751Y770909D01*
X1013916Y770704D01*
X1013869Y770690D01*
X1013794Y770678D01*
X1012033Y770118D01*
X1011991Y770095D01*
X1011919Y770069D01*
X1010302Y769176D01*
X1010264Y769146D01*
X1010199Y769106D01*
X1008787Y767915D01*
X1008756Y767878D01*
X1008700Y767826D01*
X1007547Y766382D01*
X1007525Y766340D01*
X1007480Y766278D01*
X1006631Y764637D01*
X1006617Y764591D01*
X1006585Y764522D01*
X1006072Y762747D01*
X1006067Y762699D01*
X1006050Y762624D01*
X1005893Y760784D01*
X1005897Y760740D01*
X1005893Y760675D01*
X1006053Y758844D01*
X1006066Y758798D01*
X1006074Y758737D01*
X1006074Y758735D01*
X1006076Y758722D01*
X1006590Y756958D01*
X1006611Y756914D01*
X1006636Y756842D01*
X1007485Y755212D01*
X1007514Y755174D01*
X1007553Y755108D01*
X1008703Y753675D01*
X1008739Y753643D01*
X1008790Y753586D01*
X1010198Y752405D01*
X1010239Y752381D01*
X1010300Y752335D01*
X1011912Y751451D01*
X1011957Y751436D01*
X1012026Y751402D01*
X1013779Y750850D01*
X1013826Y750844D01*
X1013900Y750824D01*
X1015727Y750625D01*
X1015773Y750628D01*
X1015842Y750622D01*
X1017518Y750745D01*
G37*
G36*
X1398518Y750745D02*
X1398518Y750745D01*
X1398561Y750756D01*
X1398627Y750762D01*
X1400257Y751174D01*
X1400297Y751192D01*
X1400361Y751210D01*
X1401894Y751898D01*
X1401931Y751923D01*
X1401991Y751952D01*
X1403381Y752896D01*
X1403413Y752927D01*
X1403467Y752965D01*
X1404673Y754136D01*
X1404699Y754173D01*
X1404745Y754220D01*
X1405729Y755582D01*
X1405748Y755623D01*
X1405785Y755677D01*
X1406518Y757190D01*
X1406530Y757233D01*
X1406557Y757293D01*
X1407015Y758910D01*
X1407020Y758955D01*
X1407036Y759019D01*
X1407207Y760691D01*
X1407203Y760739D01*
X1407207Y760818D01*
X1407041Y762490D01*
X1407029Y762533D01*
X1407020Y762599D01*
X1406566Y764216D01*
X1406547Y764257D01*
X1406527Y764320D01*
X1405799Y765834D01*
X1405773Y765870D01*
X1405743Y765929D01*
X1404762Y767294D01*
X1404730Y767325D01*
X1404690Y767378D01*
X1403488Y768552D01*
X1403451Y768577D01*
X1403403Y768622D01*
X1402015Y769569D01*
X1401974Y769587D01*
X1401918Y769623D01*
X1400387Y770315D01*
X1400344Y770326D01*
X1400283Y770352D01*
X1398654Y770767D01*
X1398610Y770770D01*
X1398545Y770785D01*
X1396870Y770911D01*
X1396823Y770907D01*
X1396751Y770909D01*
X1394916Y770704D01*
X1394869Y770690D01*
X1394794Y770678D01*
X1393033Y770118D01*
X1392991Y770095D01*
X1392919Y770069D01*
X1391302Y769176D01*
X1391264Y769146D01*
X1391199Y769106D01*
X1389787Y767915D01*
X1389756Y767878D01*
X1389700Y767826D01*
X1388547Y766382D01*
X1388525Y766340D01*
X1388480Y766278D01*
X1387631Y764637D01*
X1387617Y764591D01*
X1387585Y764522D01*
X1387072Y762747D01*
X1387067Y762699D01*
X1387050Y762624D01*
X1386893Y760784D01*
X1386897Y760740D01*
X1386893Y760675D01*
X1387053Y758844D01*
X1387066Y758798D01*
X1387074Y758737D01*
X1387074Y758735D01*
X1387076Y758722D01*
X1387590Y756958D01*
X1387611Y756914D01*
X1387636Y756842D01*
X1388485Y755212D01*
X1388514Y755174D01*
X1388553Y755108D01*
X1389703Y753675D01*
X1389739Y753643D01*
X1389790Y753586D01*
X1391198Y752405D01*
X1391239Y752381D01*
X1391300Y752335D01*
X1392912Y751451D01*
X1392957Y751436D01*
X1393026Y751402D01*
X1394779Y750850D01*
X1394826Y750844D01*
X1394900Y750824D01*
X1396727Y750625D01*
X1396773Y750628D01*
X1396842Y750622D01*
X1398518Y750745D01*
G37*
G36*
X1208018Y750745D02*
X1208018Y750745D01*
X1208061Y750756D01*
X1208127Y750762D01*
X1209757Y751174D01*
X1209797Y751192D01*
X1209861Y751210D01*
X1211394Y751898D01*
X1211431Y751923D01*
X1211491Y751952D01*
X1212881Y752896D01*
X1212913Y752927D01*
X1212967Y752965D01*
X1214173Y754136D01*
X1214199Y754173D01*
X1214245Y754220D01*
X1215229Y755582D01*
X1215248Y755623D01*
X1215285Y755677D01*
X1216018Y757190D01*
X1216030Y757233D01*
X1216057Y757293D01*
X1216515Y758910D01*
X1216520Y758955D01*
X1216536Y759019D01*
X1216707Y760691D01*
X1216703Y760739D01*
X1216707Y760818D01*
X1216541Y762490D01*
X1216529Y762533D01*
X1216520Y762599D01*
X1216066Y764216D01*
X1216047Y764257D01*
X1216027Y764320D01*
X1215299Y765834D01*
X1215273Y765870D01*
X1215243Y765929D01*
X1214262Y767294D01*
X1214230Y767325D01*
X1214190Y767378D01*
X1212988Y768552D01*
X1212951Y768577D01*
X1212903Y768622D01*
X1211515Y769569D01*
X1211474Y769587D01*
X1211418Y769623D01*
X1209887Y770315D01*
X1209844Y770326D01*
X1209783Y770352D01*
X1208154Y770767D01*
X1208110Y770770D01*
X1208045Y770785D01*
X1206370Y770911D01*
X1206323Y770907D01*
X1206251Y770909D01*
X1204416Y770704D01*
X1204369Y770690D01*
X1204294Y770678D01*
X1202533Y770118D01*
X1202491Y770095D01*
X1202419Y770069D01*
X1200802Y769176D01*
X1200764Y769146D01*
X1200699Y769106D01*
X1199287Y767915D01*
X1199256Y767878D01*
X1199200Y767826D01*
X1198047Y766382D01*
X1198025Y766340D01*
X1197980Y766278D01*
X1197131Y764637D01*
X1197117Y764591D01*
X1197085Y764522D01*
X1196572Y762747D01*
X1196567Y762699D01*
X1196550Y762624D01*
X1196393Y760784D01*
X1196397Y760740D01*
X1196393Y760675D01*
X1196553Y758844D01*
X1196566Y758798D01*
X1196574Y758737D01*
X1196574Y758735D01*
X1196576Y758722D01*
X1197090Y756958D01*
X1197111Y756914D01*
X1197136Y756842D01*
X1197985Y755212D01*
X1198014Y755174D01*
X1198053Y755108D01*
X1199203Y753675D01*
X1199239Y753643D01*
X1199290Y753586D01*
X1200698Y752405D01*
X1200739Y752381D01*
X1200800Y752335D01*
X1202412Y751451D01*
X1202457Y751436D01*
X1202526Y751402D01*
X1204279Y750850D01*
X1204326Y750844D01*
X1204400Y750824D01*
X1206227Y750625D01*
X1206273Y750628D01*
X1206342Y750622D01*
X1208018Y750745D01*
G37*
G36*
X865118Y750745D02*
X865118Y750745D01*
X865161Y750756D01*
X865227Y750762D01*
X866857Y751174D01*
X866897Y751192D01*
X866961Y751210D01*
X868494Y751898D01*
X868531Y751923D01*
X868591Y751952D01*
X869981Y752896D01*
X870013Y752927D01*
X870067Y752965D01*
X871273Y754136D01*
X871299Y754173D01*
X871345Y754220D01*
X872329Y755582D01*
X872348Y755623D01*
X872385Y755677D01*
X873118Y757190D01*
X873130Y757233D01*
X873157Y757293D01*
X873615Y758910D01*
X873620Y758955D01*
X873636Y759019D01*
X873807Y760691D01*
X873803Y760739D01*
X873807Y760818D01*
X873641Y762490D01*
X873629Y762533D01*
X873620Y762599D01*
X873166Y764216D01*
X873147Y764257D01*
X873127Y764320D01*
X872399Y765834D01*
X872373Y765870D01*
X872343Y765929D01*
X871362Y767294D01*
X871330Y767325D01*
X871290Y767378D01*
X870088Y768552D01*
X870051Y768577D01*
X870003Y768622D01*
X868615Y769569D01*
X868574Y769587D01*
X868518Y769623D01*
X866987Y770315D01*
X866944Y770326D01*
X866883Y770352D01*
X865254Y770767D01*
X865210Y770770D01*
X865145Y770785D01*
X863470Y770911D01*
X863423Y770907D01*
X863351Y770909D01*
X861516Y770704D01*
X861469Y770690D01*
X861394Y770678D01*
X859633Y770118D01*
X859591Y770095D01*
X859519Y770069D01*
X857902Y769176D01*
X857864Y769146D01*
X857799Y769106D01*
X856387Y767915D01*
X856356Y767878D01*
X856300Y767826D01*
X855147Y766382D01*
X855125Y766340D01*
X855080Y766278D01*
X854231Y764637D01*
X854217Y764591D01*
X854185Y764522D01*
X853672Y762747D01*
X853667Y762699D01*
X853650Y762624D01*
X853493Y760784D01*
X853497Y760740D01*
X853493Y760675D01*
X853653Y758844D01*
X853666Y758798D01*
X853674Y758737D01*
X853674Y758735D01*
X853676Y758722D01*
X854190Y756958D01*
X854211Y756914D01*
X854236Y756842D01*
X855085Y755212D01*
X855114Y755174D01*
X855153Y755108D01*
X856303Y753675D01*
X856339Y753643D01*
X856390Y753586D01*
X857798Y752405D01*
X857839Y752381D01*
X857900Y752335D01*
X859512Y751451D01*
X859557Y751436D01*
X859626Y751402D01*
X861379Y750850D01*
X861426Y750844D01*
X861500Y750824D01*
X863327Y750625D01*
X863373Y750628D01*
X863442Y750622D01*
X865118Y750745D01*
G37*
G36*
X1055618Y750745D02*
X1055618Y750745D01*
X1055661Y750756D01*
X1055727Y750762D01*
X1057357Y751174D01*
X1057397Y751192D01*
X1057461Y751210D01*
X1058994Y751898D01*
X1059031Y751923D01*
X1059091Y751952D01*
X1060481Y752896D01*
X1060513Y752927D01*
X1060567Y752965D01*
X1061773Y754136D01*
X1061799Y754173D01*
X1061845Y754220D01*
X1062829Y755582D01*
X1062848Y755623D01*
X1062885Y755677D01*
X1063618Y757190D01*
X1063630Y757233D01*
X1063657Y757293D01*
X1064115Y758910D01*
X1064120Y758955D01*
X1064136Y759019D01*
X1064307Y760691D01*
X1064303Y760739D01*
X1064307Y760818D01*
X1064141Y762490D01*
X1064129Y762533D01*
X1064120Y762599D01*
X1063666Y764216D01*
X1063647Y764257D01*
X1063627Y764320D01*
X1062899Y765834D01*
X1062873Y765870D01*
X1062843Y765929D01*
X1061862Y767294D01*
X1061830Y767325D01*
X1061790Y767378D01*
X1060588Y768552D01*
X1060551Y768577D01*
X1060503Y768622D01*
X1059115Y769569D01*
X1059074Y769587D01*
X1059018Y769623D01*
X1057487Y770315D01*
X1057444Y770326D01*
X1057383Y770352D01*
X1055754Y770767D01*
X1055710Y770770D01*
X1055645Y770785D01*
X1053970Y770911D01*
X1053923Y770907D01*
X1053851Y770909D01*
X1052016Y770704D01*
X1051969Y770690D01*
X1051894Y770678D01*
X1050133Y770118D01*
X1050091Y770095D01*
X1050019Y770069D01*
X1048402Y769176D01*
X1048364Y769146D01*
X1048299Y769106D01*
X1046887Y767915D01*
X1046856Y767878D01*
X1046800Y767826D01*
X1045647Y766382D01*
X1045625Y766340D01*
X1045580Y766278D01*
X1044731Y764637D01*
X1044717Y764591D01*
X1044685Y764522D01*
X1044172Y762747D01*
X1044167Y762699D01*
X1044150Y762624D01*
X1043993Y760784D01*
X1043997Y760740D01*
X1043993Y760675D01*
X1044153Y758844D01*
X1044166Y758798D01*
X1044174Y758737D01*
X1044174Y758735D01*
X1044176Y758722D01*
X1044690Y756958D01*
X1044711Y756914D01*
X1044736Y756842D01*
X1045585Y755212D01*
X1045614Y755174D01*
X1045653Y755108D01*
X1046803Y753675D01*
X1046839Y753643D01*
X1046890Y753586D01*
X1048298Y752405D01*
X1048339Y752381D01*
X1048400Y752335D01*
X1050012Y751451D01*
X1050057Y751436D01*
X1050126Y751402D01*
X1051879Y750850D01*
X1051926Y750844D01*
X1052000Y750824D01*
X1053827Y750625D01*
X1053873Y750628D01*
X1053942Y750622D01*
X1055618Y750745D01*
G37*
G36*
X1246118Y750745D02*
X1246118Y750745D01*
X1246161Y750756D01*
X1246227Y750762D01*
X1247857Y751174D01*
X1247897Y751192D01*
X1247961Y751210D01*
X1249494Y751898D01*
X1249531Y751923D01*
X1249591Y751952D01*
X1250981Y752896D01*
X1251013Y752927D01*
X1251067Y752965D01*
X1252273Y754136D01*
X1252299Y754173D01*
X1252345Y754220D01*
X1253329Y755582D01*
X1253348Y755623D01*
X1253385Y755677D01*
X1254118Y757190D01*
X1254130Y757233D01*
X1254157Y757293D01*
X1254615Y758910D01*
X1254620Y758955D01*
X1254636Y759019D01*
X1254807Y760691D01*
X1254803Y760739D01*
X1254807Y760818D01*
X1254641Y762490D01*
X1254629Y762533D01*
X1254620Y762599D01*
X1254166Y764216D01*
X1254147Y764257D01*
X1254127Y764320D01*
X1253399Y765834D01*
X1253373Y765870D01*
X1253343Y765929D01*
X1252362Y767294D01*
X1252330Y767325D01*
X1252290Y767378D01*
X1251088Y768552D01*
X1251051Y768577D01*
X1251003Y768622D01*
X1249615Y769569D01*
X1249574Y769587D01*
X1249518Y769623D01*
X1247987Y770315D01*
X1247944Y770326D01*
X1247883Y770352D01*
X1246254Y770767D01*
X1246210Y770770D01*
X1246145Y770785D01*
X1244470Y770911D01*
X1244423Y770907D01*
X1244351Y770909D01*
X1242516Y770704D01*
X1242469Y770690D01*
X1242394Y770678D01*
X1240633Y770118D01*
X1240591Y770095D01*
X1240519Y770069D01*
X1238902Y769176D01*
X1238864Y769146D01*
X1238799Y769106D01*
X1237387Y767915D01*
X1237356Y767878D01*
X1237300Y767826D01*
X1236147Y766382D01*
X1236125Y766340D01*
X1236080Y766278D01*
X1235231Y764637D01*
X1235217Y764591D01*
X1235185Y764522D01*
X1234672Y762747D01*
X1234667Y762699D01*
X1234650Y762624D01*
X1234493Y760784D01*
X1234497Y760740D01*
X1234493Y760675D01*
X1234653Y758844D01*
X1234666Y758798D01*
X1234674Y758737D01*
X1234674Y758735D01*
X1234676Y758722D01*
X1235190Y756958D01*
X1235211Y756914D01*
X1235236Y756842D01*
X1236085Y755212D01*
X1236114Y755174D01*
X1236153Y755108D01*
X1237303Y753675D01*
X1237339Y753643D01*
X1237390Y753586D01*
X1238798Y752405D01*
X1238839Y752381D01*
X1238900Y752335D01*
X1240512Y751451D01*
X1240557Y751436D01*
X1240626Y751402D01*
X1242379Y750850D01*
X1242426Y750844D01*
X1242500Y750824D01*
X1244327Y750625D01*
X1244373Y750628D01*
X1244442Y750622D01*
X1246118Y750745D01*
G37*
G36*
X84068Y410436D02*
X84068Y410436D01*
X84111Y410447D01*
X84177Y410453D01*
X85807Y410865D01*
X85847Y410883D01*
X85911Y410901D01*
X87444Y411589D01*
X87481Y411614D01*
X87541Y411643D01*
X88931Y412587D01*
X88963Y412618D01*
X89017Y412656D01*
X90223Y413827D01*
X90249Y413864D01*
X90295Y413911D01*
X91279Y415273D01*
X91298Y415314D01*
X91335Y415368D01*
X92068Y416881D01*
X92080Y416924D01*
X92107Y416984D01*
X92565Y418601D01*
X92570Y418646D01*
X92586Y418710D01*
X92757Y420382D01*
X92753Y420430D01*
X92757Y420509D01*
X92591Y422181D01*
X92579Y422224D01*
X92570Y422290D01*
X92116Y423907D01*
X92097Y423948D01*
X92077Y424011D01*
X91349Y425525D01*
X91323Y425561D01*
X91293Y425620D01*
X90312Y426985D01*
X90280Y427016D01*
X90240Y427069D01*
X89038Y428243D01*
X89001Y428268D01*
X88953Y428313D01*
X87565Y429260D01*
X87524Y429278D01*
X87468Y429314D01*
X85937Y430006D01*
X85894Y430017D01*
X85833Y430043D01*
X84204Y430458D01*
X84160Y430461D01*
X84095Y430476D01*
X82420Y430602D01*
X82373Y430598D01*
X82301Y430600D01*
X80466Y430395D01*
X80419Y430381D01*
X80344Y430369D01*
X78583Y429809D01*
X78541Y429786D01*
X78469Y429760D01*
X76852Y428867D01*
X76814Y428837D01*
X76749Y428797D01*
X75337Y427606D01*
X75306Y427569D01*
X75250Y427517D01*
X74097Y426073D01*
X74075Y426031D01*
X74030Y425969D01*
X73181Y424328D01*
X73167Y424282D01*
X73135Y424213D01*
X72622Y422438D01*
X72617Y422390D01*
X72600Y422315D01*
X72443Y420475D01*
X72447Y420431D01*
X72443Y420366D01*
X72603Y418535D01*
X72616Y418489D01*
X72624Y418428D01*
X72624Y418426D01*
X72626Y418413D01*
X73140Y416649D01*
X73161Y416605D01*
X73186Y416533D01*
X74035Y414903D01*
X74064Y414865D01*
X74103Y414799D01*
X75253Y413366D01*
X75289Y413334D01*
X75340Y413277D01*
X76748Y412096D01*
X76789Y412072D01*
X76850Y412026D01*
X78462Y411142D01*
X78507Y411127D01*
X78576Y411093D01*
X80329Y410541D01*
X80376Y410535D01*
X80450Y410515D01*
X82277Y410316D01*
X82323Y410319D01*
X82392Y410313D01*
X84068Y410436D01*
G37*
G36*
X84068Y382445D02*
X84068Y382445D01*
X84111Y382456D01*
X84177Y382462D01*
X85807Y382874D01*
X85847Y382892D01*
X85911Y382910D01*
X87444Y383598D01*
X87481Y383623D01*
X87541Y383652D01*
X88931Y384596D01*
X88963Y384627D01*
X89017Y384665D01*
X90223Y385836D01*
X90249Y385873D01*
X90295Y385920D01*
X91279Y387282D01*
X91298Y387323D01*
X91335Y387377D01*
X92068Y388890D01*
X92080Y388933D01*
X92107Y388993D01*
X92565Y390610D01*
X92570Y390655D01*
X92586Y390719D01*
X92757Y392391D01*
X92753Y392439D01*
X92757Y392518D01*
X92591Y394190D01*
X92579Y394233D01*
X92570Y394299D01*
X92116Y395916D01*
X92097Y395957D01*
X92077Y396020D01*
X91349Y397534D01*
X91323Y397570D01*
X91293Y397629D01*
X90312Y398994D01*
X90280Y399025D01*
X90240Y399078D01*
X89038Y400252D01*
X89001Y400277D01*
X88953Y400322D01*
X87565Y401269D01*
X87524Y401287D01*
X87468Y401323D01*
X85937Y402015D01*
X85894Y402026D01*
X85833Y402052D01*
X84204Y402467D01*
X84160Y402470D01*
X84095Y402485D01*
X82420Y402611D01*
X82373Y402607D01*
X82301Y402609D01*
X80466Y402404D01*
X80419Y402390D01*
X80344Y402378D01*
X78583Y401818D01*
X78541Y401795D01*
X78469Y401769D01*
X76852Y400876D01*
X76814Y400846D01*
X76749Y400806D01*
X75337Y399615D01*
X75306Y399578D01*
X75250Y399526D01*
X74097Y398082D01*
X74075Y398040D01*
X74030Y397978D01*
X73181Y396337D01*
X73167Y396291D01*
X73135Y396222D01*
X72622Y394447D01*
X72617Y394399D01*
X72600Y394324D01*
X72443Y392484D01*
X72447Y392440D01*
X72443Y392375D01*
X72603Y390544D01*
X72616Y390498D01*
X72624Y390437D01*
X72624Y390435D01*
X72626Y390422D01*
X73140Y388658D01*
X73161Y388614D01*
X73186Y388542D01*
X74035Y386912D01*
X74064Y386874D01*
X74103Y386808D01*
X75253Y385375D01*
X75289Y385343D01*
X75340Y385286D01*
X76748Y384105D01*
X76789Y384081D01*
X76850Y384035D01*
X78462Y383151D01*
X78507Y383136D01*
X78576Y383102D01*
X80329Y382550D01*
X80376Y382544D01*
X80450Y382524D01*
X82277Y382325D01*
X82323Y382328D01*
X82392Y382322D01*
X84068Y382445D01*
G37*
D10*
X-15875Y193675D03*
X12700Y987425D03*
X1422400Y184150D03*
X1431925Y987425D03*
D11*
X90170Y663575D02*
X74930Y663575D01*
X74930Y638175D02*
X90170Y638175D01*
X90170Y612775D02*
X74930Y612775D01*
D12*
X1282700Y838200D03*
X1282700Y812800D03*
X1282700Y787400D03*
X1282700Y762000D03*
X1358900Y762000D03*
X1358900Y787400D03*
X1358900Y812800D03*
X1358900Y838200D03*
D11*
X782320Y480060D02*
X767080Y480060D01*
X767080Y505460D02*
X782320Y505460D01*
X782320Y530860D02*
X767080Y530860D01*
X767080Y556260D02*
X782320Y556260D01*
X782320Y581660D02*
X767080Y581660D01*
X767080Y607060D02*
X782320Y607060D01*
X782320Y632460D02*
X767080Y632460D01*
X767080Y657860D02*
X782320Y657860D01*
X782320Y698500D02*
X767080Y698500D01*
X767080Y723900D02*
X782320Y723900D01*
X782320Y749300D02*
X767080Y749300D01*
X767080Y774700D02*
X782320Y774700D01*
X782320Y800100D02*
X767080Y800100D01*
X767080Y825500D02*
X782320Y825500D01*
X782320Y850900D02*
X767080Y850900D01*
X767080Y876300D02*
X782320Y876300D01*
X299720Y571500D02*
X284480Y571500D01*
X284480Y596900D02*
X299720Y596900D01*
X299720Y622300D02*
X284480Y622300D01*
X284480Y647700D02*
X299720Y647700D01*
X299720Y673100D02*
X284480Y673100D01*
X284480Y698500D02*
X299720Y698500D01*
X299720Y749300D02*
X284480Y749300D01*
X284480Y774700D02*
X299720Y774700D01*
X299720Y800100D02*
X284480Y800100D01*
X284480Y825500D02*
X299720Y825500D01*
X299720Y850900D02*
X284480Y850900D01*
X284480Y876300D02*
X299720Y876300D01*
D13*
X774700Y393700D03*
X622300Y901700D03*
X342900Y901700D03*
D14*
X537838Y792996D03*
D15*
X1362260Y889000D03*
D16*
X1279340Y889000D03*
D17*
X415925Y527050D03*
X492125Y527050D03*
X520700Y527050D03*
X596900Y527050D03*
X415925Y450850D03*
X492125Y450850D03*
X520700Y450850D03*
X596900Y450850D03*
X415925Y374650D03*
X492125Y374650D03*
X520700Y374650D03*
X596900Y374650D03*
X415925Y565150D03*
X492125Y565150D03*
X415925Y488950D03*
X492125Y488950D03*
X415925Y412750D03*
X492125Y412750D03*
D18*
X21475Y234675D03*
D19*
X21475Y279675D03*
D18*
X86475Y234675D03*
X86475Y279675D03*
X21475Y307700D03*
D19*
X21475Y352700D03*
D18*
X86475Y307700D03*
X86475Y352700D03*
D20*
X1295400Y448628D02*
X1295400Y465773D01*
X1320800Y465773D02*
X1320800Y448628D01*
X1346200Y448628D02*
X1346200Y465773D01*
X1346200Y402273D02*
X1346200Y385128D01*
X1320800Y385128D02*
X1320800Y402273D01*
X1295400Y402273D02*
X1295400Y385128D01*
X1104900Y448628D02*
X1104900Y465773D01*
X1130300Y465773D02*
X1130300Y448628D01*
X1155700Y448628D02*
X1155700Y465773D01*
X1155700Y402273D02*
X1155700Y385128D01*
X1130300Y385128D02*
X1130300Y402273D01*
X1104900Y402273D02*
X1104900Y385128D01*
X914400Y448628D02*
X914400Y465773D01*
X939800Y465773D02*
X939800Y448628D01*
X965200Y448628D02*
X965200Y465773D01*
X965200Y402273D02*
X965200Y385128D01*
X939800Y385128D02*
X939800Y402273D01*
X914400Y402273D02*
X914400Y385128D01*
D17*
X1282700Y698500D03*
X1358900Y698500D03*
X1282700Y723900D03*
X1358900Y723900D03*
X1092200Y698500D03*
X1168400Y698500D03*
X1092200Y723900D03*
X1168400Y723900D03*
X901700Y698500D03*
X977900Y698500D03*
X901700Y723900D03*
X977900Y723900D03*
D21*
X192750Y809625D03*
X158750Y809625D03*
X192750Y674925D03*
X158750Y674925D03*
D22*
X158750Y911225D03*
X57150Y911225D03*
D23*
X57150Y847725D03*
X57150Y746125D03*
D24*
X159150Y555625D03*
D25*
X209150Y555625D03*
D24*
X159150Y415925D03*
D25*
X209150Y415925D03*
D24*
X159150Y276225D03*
D25*
X209150Y276225D03*
D11*
X90170Y533400D02*
X74930Y533400D01*
X74930Y508000D02*
X90170Y508000D01*
X90170Y482600D02*
X74930Y482600D01*
D12*
X1092200Y838200D03*
X1092200Y812800D03*
X1092200Y787400D03*
X1092200Y762000D03*
X1168400Y762000D03*
X1168400Y787400D03*
X1168400Y812800D03*
X1168400Y838200D03*
D15*
X1171760Y889000D03*
D16*
X1088840Y889000D03*
D12*
X901700Y838200D03*
X901700Y812800D03*
X901700Y787400D03*
X901700Y762000D03*
X977900Y762000D03*
X977900Y787400D03*
X977900Y812800D03*
X977900Y838200D03*
D15*
X981260Y889000D03*
D16*
X898340Y889000D03*
D26*
X44450Y393700D03*
D27*
X990600Y647700D03*
X1181100Y647700D03*
X1371600Y647700D03*
D26*
X44450Y422275D03*
D27*
X1390650Y374650D03*
X1384300Y231775D03*
X1006475Y374650D03*
X1000125Y238125D03*
X1196975Y374650D03*
X1190625Y231775D03*
X723900Y561975D03*
X723900Y482600D03*
M02*
